<?xml version="1.0" encoding="UTF-8"?>
<svg id="a" data-name="Layer 1" xmlns="http://www.w3.org/2000/svg" width="180.217mm" height="173.386mm" viewBox="0 0 510.85 491.488">
  <path d="M432.743,232.08c-5.934-10.104-15.836-18.856-29.709-26.273-13.883-7.408-32.676-12.185-56.387-14.349v-.806c17.512-3.772,31.728-9.432,42.644-16.977,10.913-7.539,18.859-16.029,23.847-25.464,4.982-9.429,7.479-18.856,7.479-28.292,0-18.594-7.884-33.815-23.648-45.673-15.764-11.855-39.546-17.786-71.339-17.786h-88.92v59.351c17.382,0,45.622,7.209,55.376,32.043v-48.952c0-14.01,1.677-23.309,5.051-27.893,3.365-4.578,10.574-6.867,21.624-6.867,16.166,0,27.75,5.051,34.76,15.158,7.004,10.104,10.509,25.126,10.509,45.064,0,11.588-1.35,22.432-4.04,32.536-2.696,10.104-7.821,18.19-15.36,24.254-7.545,6.058-18.19,9.094-31.933,9.094h-20.818c-.256-11.106-1.269-20.143-3.059-27.081-2.087-8.083-5.63-14.682-10.633-19.804-4.45-4.581-10.217-8.35-17.304-11.317-7.093-2.964-16.475-4.444-28.149-4.444-14.459,0-28.44,3.094-40.67,9.293-12.236,6.204-21.829,16.977-28.773,32.334v-46.693h-55.373v198.263c0,22.367-2.018,40.019-6.064,52.953-4.04,12.931-10.042,22.09-17.988,27.486-7.949,5.384-17.444,8.348-28.491,8.889v8.083c28.291,0,50.923-6.264,67.903-18.794,16.971-12.53,28.018-28.229,33.143-47.088,2.423-9.162,4.105-19.804,5.054-31.93.942-12.126,1.474-24.656,1.614-37.587.024-2.357.045-4.643.065-6.935l.137-.077v-76.256c0-10.506,2.013-20.006,6.047-28.491,4.025-8.49,9.59-15.158,16.68-20.009,7.09-4.848,15.857-7.274,25.033-7.274,1.026,0,1.938.107,2.901.166,22.557,2.381,22.759,32.483,22.759,38.797v159.493h98.216c22.367,0,41.496-3.095,57.4-9.299,15.889-6.192,28.086-15.155,36.573-26.876,8.49-11.718,12.735-25.797,12.735-42.239,0-11.044-2.97-21.621-8.891-31.728M368.677,314.538c-9.84,12.26-25.806,18.386-47.897,18.386-7.818,0-13.743-.806-17.783-2.423-4.046-1.617-6.876-4.852-8.49-9.703-1.617-4.849-2.423-11.983-2.423-21.419v-102.262h22.631c24.519,0,42.1,5.66,52.745,16.977,10.642,11.314,15.967,27.352,15.967,48.096,0,22.637-4.92,40.087-14.751,52.347" fill="#1a270f"/>
  <g>
    <path d="M233.945,417.357l19.635-53.273h8.828l19.483,53.273h-8.524l-4.565-13.014h-21.767l-4.566,13.014h-8.523ZM249.318,397.951h17.2l-8.601-24.277-8.6,24.277Z" fill="#929b97"/>
    <path d="M293.611,372.456c-1.521,0-2.777-.469-3.767-1.408-.989-.938-1.484-2.118-1.484-3.539s.495-2.6,1.484-3.539c.989-.938,2.245-1.407,3.767-1.407s2.778.47,3.768,1.407c.989.939,1.483,2.119,1.483,3.539s-.494,2.601-1.483,3.539c-.989.939-2.245,1.408-3.768,1.408ZM289.578,417.357v-37.748h8.067v37.748h-8.067Z" fill="#929b97"/>
    <path d="M308.298,417.357v-37.748h7.23l.685,7.154c1.319-2.485,3.158-4.452,5.518-5.898s5.213-2.169,8.562-2.169v8.447h-2.207c-2.232,0-4.224.369-5.974,1.104-1.751.736-3.146,1.979-4.186,3.729-1.041,1.75-1.561,4.174-1.561,7.268v18.113h-8.067Z" fill="#929b97"/>
  </g>
  <rect x="107.916" y="55.373" width="55.373" height="55.373" fill="#929b97"/>
</svg>