<?xml version="1.0" encoding="UTF-8"?>
<svg id="a" data-name="Layer 1" xmlns="http://www.w3.org/2000/svg" width="185.233mm" height="176.453mm" viewBox="0 0 525.07 500.181">
  <rect x="108.292" y="81.589" width="55.373" height="55.373" fill="#f5eddf"/>
  <path d="M433.12,257.211c-5.933-10.105-15.837-18.858-29.71-26.273-13.882-7.409-32.677-12.188-56.387-14.349v-.808c17.513-3.771,31.729-9.431,42.645-16.976,10.912-7.539,18.858-16.029,23.847-25.465,4.983-9.428,7.478-18.855,7.478-28.292,0-18.594-7.882-33.812-23.647-45.672-15.764-11.854-39.548-17.787-71.341-17.787h-88.921v59.35c17.382,0,45.622,7.21,55.376,32.044v-48.953c0-14.009,1.679-23.307,5.052-27.891,3.364-4.579,10.572-6.868,21.624-6.868,16.165,0,27.749,5.052,34.759,15.157,7.002,10.105,10.509,25.128,10.509,45.065,0,11.59-1.351,22.432-4.041,32.537-2.696,10.105-7.821,18.19-15.361,24.254-7.545,6.06-18.19,9.094-31.933,9.094h-20.819c-.253-11.106-1.267-20.143-3.058-27.081-2.086-8.083-5.629-14.683-10.632-19.806-4.451-4.579-10.218-8.35-17.304-11.316-7.092-2.963-16.475-4.445-28.149-4.445-14.46,0-28.441,3.097-40.671,9.294-12.236,6.203-21.828,16.976-28.773,32.333v-45.605h-55.373v197.177c0,22.365-2.019,40.018-6.063,52.953-4.041,12.932-10.041,22.089-17.987,27.484-7.949,5.386-17.446,8.35-28.493,8.89v8.083c28.292,0,50.925-6.264,67.903-18.795,16.973-12.528,28.019-28.228,33.144-47.087,2.423-9.164,4.105-19.806,5.052-31.93.941-12.127,1.476-24.658,1.615-37.589.024-2.355.044-4.643.064-6.936l.137-.076v-76.256c0-10.506,2.015-20.006,6.046-28.493,4.025-8.489,9.592-15.157,16.681-20.009,7.089-4.849,15.857-7.275,25.033-7.275,1.027,0,1.938.108,2.902.167,22.555,2.383,22.758,32.483,22.758,38.799v159.492h98.218c22.365,0,41.494-3.094,57.398-9.297,15.892-6.194,28.089-15.157,36.575-26.877,8.489-11.72,12.734-25.799,12.734-42.241,0-11.043-2.969-21.621-8.89-31.726ZM369.054,339.667c-9.841,12.261-25.805,18.388-47.897,18.388-7.818,0-13.742-.808-17.784-2.423-4.044-1.618-6.874-4.852-8.489-9.704-1.615-4.849-2.423-11.984-2.423-21.418v-102.262h22.632c24.518,0,42.101,5.66,52.746,16.976,10.642,11.316,15.965,27.354,15.965,48.098,0,22.636-4.919,40.085-14.75,52.346Z" fill="#f5eddf"/>
</svg>