<?xml version="1.0" encoding="UTF-8"?>
<svg id="a" data-name="Layer 1" xmlns="http://www.w3.org/2000/svg" width="258.157mm" height="173.386mm" viewBox="0 0 731.783 491.488">
  <path d="M432.743,232.08c-5.934-10.104-15.836-18.856-29.709-26.273-13.883-7.408-32.676-12.185-56.387-14.349v-.806c17.512-3.772,31.728-9.432,42.644-16.977,10.913-7.539,18.859-16.029,23.847-25.464,4.982-9.429,7.479-18.856,7.479-28.292,0-18.594-7.884-33.815-23.648-45.673-15.764-11.855-39.546-17.786-71.339-17.786h-88.92v59.351c17.382,0,45.622,7.209,55.376,32.043v-48.952c0-14.01,1.677-23.309,5.051-27.893,3.365-4.578,10.574-6.867,21.624-6.867,16.166,0,27.75,5.051,34.76,15.158,7.004,10.104,10.509,25.126,10.509,45.064,0,11.588-1.35,22.432-4.04,32.536-2.696,10.104-7.821,18.19-15.36,24.254-7.545,6.058-18.19,9.094-31.933,9.094h-20.818c-.256-11.106-1.269-20.143-3.059-27.081-2.087-8.083-5.63-14.682-10.633-19.804-4.45-4.581-10.217-8.35-17.304-11.317-7.093-2.964-16.475-4.444-28.149-4.444-14.459,0-28.44,3.094-40.67,9.293-12.236,6.204-21.829,16.977-28.773,32.334v-46.693h-55.373v198.263c0,22.367-2.018,40.019-6.064,52.953-4.04,12.931-10.042,22.09-17.988,27.486-7.949,5.384-17.444,8.348-28.491,8.889v8.083c28.291,0,50.923-6.264,67.903-18.794,16.971-12.53,28.018-28.229,33.143-47.088,2.423-9.162,4.105-19.804,5.054-31.93.942-12.126,1.474-24.656,1.614-37.587.024-2.357.045-4.643.065-6.935l.137-.077v-76.256c0-10.506,2.013-20.006,6.047-28.491,4.025-8.49,9.59-15.158,16.68-20.009,7.09-4.848,15.857-7.274,25.033-7.274,1.026,0,1.938.107,2.901.166,22.557,2.381,22.759,32.483,22.759,38.797v159.493h98.216c22.367,0,41.496-3.095,57.4-9.299,15.889-6.192,28.086-15.155,36.573-26.876,8.49-11.718,12.735-25.797,12.735-42.239,0-11.044-2.97-21.621-8.891-31.728M368.677,314.538c-9.84,12.26-25.806,18.386-47.897,18.386-7.818,0-13.743-.806-17.783-2.423-4.046-1.617-6.876-4.852-8.49-9.703-1.617-4.849-2.423-11.983-2.423-21.419v-102.262h22.631c24.519,0,42.1,5.66,52.745,16.977,10.642,11.314,15.967,27.352,15.967,48.096,0,22.637-4.92,40.087-14.751,52.347" fill="#1a270f"/>
  <g>
    <path d="M237.371,417.357v-53.273h8.067v53.273h-8.067Z" fill="#d1ba6f"/>
    <path d="M255.939,417.357v-37.748h7.154l.608,6.621c1.167-2.333,2.879-4.173,5.138-5.518,2.257-1.344,4.857-2.017,7.801-2.017,4.565,0,8.154,1.421,10.769,4.262,2.612,2.842,3.919,7.078,3.919,12.71v21.689h-7.99v-20.853c0-7.306-2.995-10.959-8.98-10.959-2.994,0-5.468,1.065-7.421,3.196s-2.93,5.175-2.93,9.133v19.482h-8.067Z" fill="#d1ba6f"/>
    <path d="M311.419,417.357l-14.155-37.748h8.447l10.502,30.062,10.503-30.062h8.371l-14.079,37.748h-9.589Z" fill="#d1ba6f"/>
    <path d="M359.364,418.27c-3.704,0-6.989-.825-9.855-2.474-2.867-1.647-5.111-3.944-6.735-6.887s-2.435-6.367-2.435-10.274c0-3.957.799-7.432,2.396-10.427,1.599-2.992,3.831-5.327,6.697-7.001,2.866-1.675,6.203-2.512,10.008-2.512,3.703,0,6.926.825,9.666,2.474,2.739,1.649,4.87,3.843,6.393,6.583,1.521,2.739,2.283,5.759,2.283,9.057,0,.508-.014,1.053-.038,1.636-.026.584-.064,1.23-.114,1.94h-29.377c.254,3.653,1.458,6.432,3.615,8.334,2.156,1.902,4.654,2.854,7.496,2.854,2.283,0,4.198-.52,5.746-1.56,1.547-1.04,2.702-2.447,3.463-4.225h8.067c-1.016,3.553-3.032,6.521-6.051,8.904-3.019,2.386-6.761,3.577-11.226,3.577ZM359.364,385.317c-2.689,0-5.073.799-7.153,2.397-2.081,1.598-3.349,3.995-3.806,7.191h21.31c-.152-2.941-1.192-5.275-3.12-7.001-1.929-1.725-4.338-2.588-7.23-2.588Z" fill="#d1ba6f"/>
    <path d="M401.221,418.27c-4.77,0-8.702-1.166-11.797-3.501-3.095-2.333-4.87-5.428-5.327-9.284h8.144c.405,1.726,1.37,3.209,2.892,4.452,1.522,1.243,3.526,1.864,6.013,1.864,2.436,0,4.211-.507,5.327-1.522,1.115-1.014,1.674-2.181,1.674-3.5,0-1.928-.773-3.234-2.32-3.92-1.549-.685-3.691-1.306-6.432-1.864-2.131-.457-4.25-1.065-6.354-1.827-2.105-.761-3.856-1.838-5.251-3.234-1.396-1.395-2.093-3.284-2.093-5.669,0-3.298,1.268-6.051,3.805-8.258s6.089-3.311,10.655-3.311c4.21,0,7.622,1.016,10.235,3.044,2.613,2.03,4.148,4.897,4.604,8.6h-7.763c-.254-1.623-1.002-2.892-2.245-3.805s-2.904-1.37-4.984-1.37c-2.03,0-3.604.419-4.719,1.256-1.116.837-1.674,1.916-1.674,3.234s.772,2.359,2.321,3.12c1.547.762,3.588,1.446,6.126,2.055,2.536.56,4.883,1.206,7.04,1.941,2.155.735,3.893,1.814,5.213,3.234,1.318,1.421,1.979,3.501,1.979,6.24.05,3.451-1.282,6.316-3.995,8.6-2.715,2.283-6.406,3.425-11.073,3.425Z" fill="#d1ba6f"/>
    <path d="M440.947,417.357c-3.704,0-6.647-.9-8.828-2.702-2.182-1.8-3.272-5.01-3.272-9.627v-18.646h-6.469v-6.773h6.469l.989-9.589h7.078v9.589h10.654v6.773h-10.654v18.646c0,2.081.443,3.514,1.331,4.3.888.787,2.423,1.18,4.604,1.18h4.338v6.85h-6.24Z" fill="#d1ba6f"/>
    <path d="M455.863,417.357v-37.748h7.154l.685,5.327c1.218-1.927,2.828-3.449,4.833-4.565,2.004-1.116,4.325-1.675,6.964-1.675,5.985,0,10.146,2.359,12.48,7.078,1.37-2.182,3.209-3.906,5.518-5.176,2.309-1.268,4.807-1.902,7.496-1.902,4.719,0,8.422,1.421,11.111,4.262,2.689,2.842,4.034,7.078,4.034,12.71v21.689h-8.067v-20.853c0-7.306-2.791-10.959-8.371-10.959-2.843,0-5.164,1.065-6.964,3.196-1.802,2.131-2.702,5.175-2.702,9.133v19.482h-8.066v-20.853c0-7.306-2.816-10.959-8.448-10.959-2.791,0-5.087,1.065-6.887,3.196-1.802,2.131-2.702,5.175-2.702,9.133v19.482h-8.067Z" fill="#d1ba6f"/>
    <path d="M543.23,418.27c-3.704,0-6.989-.825-9.855-2.474-2.867-1.647-5.111-3.944-6.735-6.887s-2.435-6.367-2.435-10.274c0-3.957.799-7.432,2.396-10.427,1.599-2.992,3.831-5.327,6.697-7.001,2.866-1.675,6.203-2.512,10.008-2.512,3.703,0,6.926.825,9.666,2.474,2.739,1.649,4.87,3.843,6.393,6.583,1.521,2.739,2.283,5.759,2.283,9.057,0,.508-.014,1.053-.038,1.636-.026.584-.064,1.23-.114,1.94h-29.377c.254,3.653,1.458,6.432,3.615,8.334,2.156,1.902,4.654,2.854,7.496,2.854,2.283,0,4.198-.52,5.746-1.56,1.547-1.04,2.702-2.447,3.463-4.225h8.067c-1.016,3.553-3.032,6.521-6.051,8.904-3.019,2.386-6.761,3.577-11.226,3.577ZM543.23,385.317c-2.689,0-5.073.799-7.153,2.397-2.081,1.598-3.349,3.995-3.806,7.191h21.31c-.152-2.941-1.192-5.275-3.12-7.001-1.929-1.725-4.338-2.588-7.23-2.588Z" fill="#d1ba6f"/>
    <path d="M570.018,417.357v-37.748h7.154l.608,6.621c1.167-2.333,2.879-4.173,5.138-5.518,2.257-1.344,4.857-2.017,7.801-2.017,4.565,0,8.154,1.421,10.769,4.262,2.612,2.842,3.919,7.078,3.919,12.71v21.689h-7.99v-20.853c0-7.306-2.995-10.959-8.98-10.959-2.994,0-5.468,1.065-7.421,3.196s-2.93,5.175-2.93,9.133v19.482h-8.067Z" fill="#d1ba6f"/>
    <path d="M630.75,417.357c-3.704,0-6.647-.9-8.828-2.702-2.182-1.8-3.272-5.01-3.272-9.627v-18.646h-6.469v-6.773h6.469l.989-9.589h7.078v9.589h10.654v6.773h-10.654v18.646c0,2.081.443,3.514,1.331,4.3.888.787,2.423,1.18,4.604,1.18h4.338v6.85h-6.24Z" fill="#d1ba6f"/>
    <path d="M660.735,418.27c-4.77,0-8.702-1.166-11.797-3.501-3.095-2.333-4.87-5.428-5.327-9.284h8.144c.405,1.726,1.37,3.209,2.892,4.452,1.522,1.243,3.526,1.864,6.013,1.864,2.436,0,4.211-.507,5.327-1.522,1.115-1.014,1.674-2.181,1.674-3.5,0-1.928-.773-3.234-2.32-3.92-1.549-.685-3.691-1.306-6.432-1.864-2.131-.457-4.25-1.065-6.354-1.827-2.105-.761-3.856-1.838-5.251-3.234-1.396-1.395-2.093-3.284-2.093-5.669,0-3.298,1.268-6.051,3.805-8.258s6.089-3.311,10.655-3.311c4.21,0,7.622,1.016,10.235,3.044,2.613,2.03,4.148,4.897,4.604,8.6h-7.763c-.254-1.623-1.002-2.892-2.245-3.805s-2.904-1.37-4.984-1.37c-2.03,0-3.604.419-4.719,1.256-1.116.837-1.674,1.916-1.674,3.234s.772,2.359,2.321,3.12c1.547.762,3.588,1.446,6.126,2.055,2.536.56,4.883,1.206,7.04,1.941,2.155.735,3.893,1.814,5.213,3.234,1.318,1.421,1.979,3.501,1.979,6.24.05,3.451-1.282,6.316-3.995,8.6-2.715,2.283-6.406,3.425-11.073,3.425Z" fill="#d1ba6f"/>
  </g>
  <rect x="107.916" y="55.373" width="55.373" height="55.373" fill="#d1ba6f"/>
</svg>