<?xml version="1.0" encoding="UTF-8"?>
<svg id="a" data-name="Layer 1" xmlns="http://www.w3.org/2000/svg" width="180.217mm" height="173.386mm" viewBox="0 0 510.85 491.488">
  <path d="M432.743,232.08c-5.934-10.104-15.836-18.856-29.709-26.273-13.883-7.408-32.676-12.185-56.387-14.349v-.806c17.512-3.772,31.728-9.432,42.644-16.977,10.913-7.539,18.859-16.029,23.847-25.464,4.982-9.429,7.479-18.856,7.479-28.292,0-18.594-7.884-33.815-23.648-45.673-15.764-11.855-39.546-17.786-71.339-17.786h-88.92v59.351c17.382,0,45.622,7.209,55.376,32.043v-48.952c0-14.01,1.677-23.309,5.051-27.893,3.365-4.578,10.574-6.867,21.624-6.867,16.166,0,27.75,5.051,34.76,15.158,7.004,10.104,10.509,25.126,10.509,45.064,0,11.588-1.35,22.432-4.04,32.536-2.696,10.104-7.821,18.19-15.36,24.254-7.545,6.058-18.19,9.094-31.933,9.094h-20.818c-.256-11.106-1.269-20.143-3.059-27.081-2.087-8.083-5.63-14.682-10.633-19.804-4.45-4.581-10.217-8.35-17.304-11.317-7.093-2.964-16.475-4.444-28.149-4.444-14.459,0-28.44,3.094-40.67,9.293-12.236,6.204-21.829,16.977-28.773,32.334v-46.693h-55.373v198.263c0,22.367-2.018,40.019-6.064,52.953-4.04,12.931-10.042,22.09-17.988,27.486-7.949,5.384-17.444,8.348-28.491,8.889v8.083c28.291,0,50.923-6.264,67.903-18.794,16.971-12.53,28.018-28.229,33.143-47.088,2.423-9.162,4.105-19.804,5.054-31.93.942-12.126,1.474-24.656,1.614-37.587.024-2.357.045-4.643.065-6.935l.137-.077v-76.256c0-10.506,2.013-20.006,6.047-28.491,4.025-8.49,9.59-15.158,16.68-20.009,7.09-4.848,15.857-7.274,25.033-7.274,1.026,0,1.938.107,2.901.166,22.557,2.381,22.759,32.483,22.759,38.797v159.493h98.216c22.367,0,41.496-3.095,57.4-9.299,15.889-6.192,28.086-15.155,36.573-26.876,8.49-11.718,12.735-25.797,12.735-42.239,0-11.044-2.97-21.621-8.891-31.728M368.677,314.538c-9.84,12.26-25.806,18.386-47.897,18.386-7.818,0-13.743-.806-17.783-2.423-4.046-1.617-6.876-4.852-8.49-9.703-1.617-4.849-2.423-11.983-2.423-21.419v-102.262h22.631c24.519,0,42.1,5.66,52.745,16.977,10.642,11.314,15.967,27.352,15.967,48.096,0,22.637-4.92,40.087-14.751,52.347" fill="#1a270f"/>
  <g>
    <path d="M237.371,417.357v-53.273h8.067v46.881h24.201v6.393h-32.269Z" fill="#a05a53"/>
    <path d="M282.576,372.456c-1.521,0-2.777-.469-3.767-1.408-.989-.938-1.484-2.118-1.484-3.539s.495-2.6,1.484-3.539c.989-.938,2.245-1.407,3.767-1.407s2.778.47,3.768,1.407c.989.939,1.483,2.119,1.483,3.539s-.494,2.601-1.483,3.539c-.989.939-2.245,1.408-3.768,1.408ZM278.543,417.357v-37.748h8.067v37.748h-8.067Z" fill="#a05a53"/>
    <path d="M307.842,417.357l-14.155-37.748h8.447l10.502,30.062,10.503-30.062h8.371l-14.079,37.748h-9.589Z" fill="#a05a53"/>
    <path d="M342.697,372.456c-1.521,0-2.777-.469-3.767-1.408-.989-.938-1.484-2.118-1.484-3.539s.495-2.6,1.484-3.539c.989-.938,2.245-1.407,3.767-1.407s2.778.47,3.768,1.407c.989.939,1.483,2.119,1.483,3.539s-.494,2.601-1.483,3.539c-.989.939-2.245,1.408-3.768,1.408ZM338.664,417.357v-37.748h8.067v37.748h-8.067Z" fill="#a05a53"/>
    <path d="M357.384,417.357v-37.748h7.154l.608,6.621c1.167-2.333,2.879-4.173,5.138-5.518,2.257-1.344,4.857-2.017,7.801-2.017,4.565,0,8.154,1.421,10.769,4.262,2.612,2.842,3.919,7.078,3.919,12.71v21.689h-7.99v-20.853c0-7.306-2.995-10.959-8.98-10.959-2.994,0-5.468,1.065-7.421,3.196s-2.93,5.175-2.93,9.133v19.482h-8.067Z" fill="#a05a53"/>
    <path d="M417.735,405.789c-1.979,0-3.805-.228-5.479-.685l-3.272,3.196c.558.355,1.243.66,2.055.913.812.255,1.953.483,3.425.686,1.472.203,3.475.406,6.013.608,5.022.457,8.649,1.663,10.883,3.615,2.232,1.954,3.349,4.553,3.349,7.801,0,2.231-.597,4.35-1.788,6.354-1.193,2.004-3.045,3.627-5.556,4.871-2.512,1.242-5.722,1.864-9.628,1.864-5.277,0-9.551-1.003-12.823-3.006-3.272-2.005-4.909-5.036-4.909-9.095,0-1.573.419-3.134,1.256-4.681.838-1.547,2.169-3.006,3.996-4.376-1.065-.456-1.992-.951-2.778-1.483-.787-.533-1.483-1.078-2.093-1.637v-1.826l6.545-6.697c-2.943-2.537-4.414-5.86-4.414-9.97,0-2.485.596-4.757,1.789-6.812,1.191-2.055,2.93-3.691,5.213-4.909,2.283-1.217,5.022-1.826,8.219-1.826,2.131,0,4.11.305,5.937.913h14.079v5.327l-6.697.381c1.218,2.081,1.827,4.389,1.827,6.926s-.598,4.82-1.789,6.85c-1.192,2.029-2.918,3.652-5.175,4.87-2.258,1.218-4.985,1.826-8.182,1.826ZM407.614,422.152c0,2.181.963,3.816,2.892,4.908,1.928,1.091,4.338,1.637,7.229,1.637,2.79,0,5.048-.598,6.773-1.789,1.725-1.192,2.588-2.777,2.588-4.756,0-1.473-.584-2.729-1.751-3.768s-3.374-1.687-6.621-1.94c-2.435-.152-4.592-.381-6.469-.686-1.776.965-2.994,2.004-3.652,3.121-.66,1.115-.989,2.207-.989,3.272ZM417.735,399.473c2.333,0,4.225-.62,5.67-1.864,1.446-1.243,2.169-3.006,2.169-5.289,0-2.333-.723-4.11-2.169-5.327-1.445-1.218-3.337-1.827-5.67-1.827-2.385,0-4.3.609-5.745,1.827-1.446,1.217-2.169,2.994-2.169,5.327,0,2.283.723,4.046,2.169,5.289,1.445,1.244,3.36,1.864,5.745,1.864Z" fill="#a05a53"/>
  </g>
  <rect x="107.916" y="55.373" width="55.373" height="55.373" fill="#a05a53"/>
</svg>