<?xml version="1.0" encoding="UTF-8"?>
<svg id="a" data-name="Layer 1" xmlns="http://www.w3.org/2000/svg" width="209.159mm" height="70.795mm" viewBox="0 0 592.892 200.68">
  <path d="M53.758,146.902v-1.846c2.784-.131,5.149-.859,7.092-2.187,1.943-1.328,3.4-3.546,4.373-6.654.971-3.109,1.457-7.352,1.457-12.728v-53.337c0-2.396-.18-4.16-.535-5.294-.355-1.133-1.085-1.91-2.186-2.332-1.102-.421-2.754-.663-4.955-.729v-1.943c1.49.065,3.4.131,5.732.194,2.332.065,4.793.098,7.384.098,2.526,0,5.003-.032,7.433-.098,2.428-.063,4.42-.129,5.975-.194v1.943c-2.138.065-3.758.308-4.857.729-1.103.422-1.846,1.199-2.234,2.332-.389,1.134-.584,2.898-.584,5.294v35.559c0,2.656-.016,5.537-.049,8.646-.033,3.108-.162,6.12-.388,9.035-.228,2.914-.632,5.473-1.215,7.675-1.165,4.533-3.644,8.307-7.433,11.318-3.788,3.012-8.791,4.518-15.01,4.518Z" fill="#0e0400"/>
  <path d="M123.805,77.146c2.59,0,4.712.34,6.363,1.021,1.652.68,3.027,1.603,4.129,2.769,1.166,1.231,1.992,2.817,2.479,4.761.484,1.943.729,4.566.729,7.869v26.037c0,2.721.533,4.566,1.603,5.538,1.069.971,2.866,1.457,5.392,1.457v2.04c-1.102-.063-2.816-.146-5.148-.243-2.332-.097-4.632-.146-6.898-.146-2.202,0-4.389.049-6.558.146-2.171.098-3.806.18-4.906.243v-2.04c2.201,0,3.756-.486,4.663-1.457.906-.972,1.36-2.817,1.36-5.538v-28.757c0-1.878-.162-3.578-.485-5.101-.325-1.521-1.006-2.753-2.041-3.692-1.036-.938-2.591-1.408-4.662-1.408-2.397,0-4.518.68-6.364,2.04-1.846,1.36-3.304,3.223-4.372,5.586-1.068,2.365-1.603,5.004-1.603,7.918v23.414c0,2.721.469,4.566,1.409,5.538.938.971,2.477,1.457,4.614,1.457v2.04c-1.037-.063-2.608-.146-4.712-.243-2.105-.097-4.291-.146-6.559-.146-2.202,0-4.502.049-6.897.146-2.396.098-4.177.18-5.343.243v-2.04c2.525,0,4.322-.486,5.392-1.457,1.069-.972,1.603-2.817,1.603-5.538v-30.506c0-2.915-.485-5.067-1.457-6.461-.971-1.392-2.817-2.089-5.537-2.089v-2.04c2.072.194,4.08.292,6.023.292,2.201,0,4.258-.113,6.169-.341,1.909-.226,3.675-.565,5.295-1.02v10.59c1.683-4.016,3.998-6.833,6.946-8.453,2.946-1.618,6.072-2.429,9.375-2.429Z" fill="#0e0400"/>
  <path d="M149.744,59.853c1.49.065,3.416.131,5.781.194,2.363.065,4.711.098,7.043.098,3.109,0,6.072-.032,8.89-.098,2.817-.063,4.81-.097,5.976-.097,7.252,0,12.678,1.425,16.272,4.274,3.595,2.851,5.392,6.509,5.392,10.979,0,2.268-.533,4.518-1.603,6.752s-2.802,4.242-5.198,6.023c-2.396,1.782-5.57,3.19-9.521,4.226v.194c5.44.583,9.716,1.749,12.824,3.498,3.108,1.748,5.31,3.837,6.606,6.267,1.295,2.429,1.943,4.971,1.943,7.626,0,3.822-.972,7.141-2.915,9.958-1.942,2.817-4.745,5.004-8.403,6.558-3.66,1.555-8.049,2.332-13.164,2.332-1.426,0-3.58-.049-6.461-.146-2.883-.098-6.363-.146-10.443-.146-2.463,0-4.875.017-7.238.048-2.365.033-4.291.114-5.781.243v-1.943c2.201-.129,3.854-.389,4.955-.777,1.101-.389,1.829-1.165,2.186-2.331.355-1.166.535-2.915.535-5.246v-48.188c0-2.396-.18-4.16-.535-5.294-.356-1.133-1.102-1.91-2.234-2.332-1.134-.421-2.769-.663-4.906-.729v-1.943ZM175.393,61.797c-2.785,0-4.614.551-5.488,1.651-.875,1.103-1.312,3.337-1.312,6.703v48.188c0,2.268.195,3.983.584,5.148.388,1.166,1.083,1.943,2.088,2.332,1.004.389,2.478.583,4.42.583,5.83,0,10.057-1.473,12.68-4.421,2.623-2.946,3.934-7.141,3.934-12.581,0-4.986-1.311-8.841-3.934-11.562-2.623-2.72-6.947-4.08-12.971-4.08h-9.424v-1.651h8.355c3.561,0,6.314-.729,8.258-2.187,1.943-1.457,3.27-3.399,3.983-5.829.712-2.429,1.069-5.035,1.069-7.82,0-4.792-.94-8.403-2.818-10.833-1.879-2.429-5.02-3.643-9.424-3.643Z" fill="#0e0400"/>
  <path d="M235.529,59.853c1.489.065,3.415.131,5.78.194,2.363.065,4.712.098,7.044.098,3.108,0,6.071-.032,8.89-.098,2.816-.063,4.809-.097,5.975-.097,8.225,0,14.379,1.781,18.459,5.343,4.08,3.562,6.121,8.161,6.121,13.796,0,2.332-.406,4.777-1.215,7.335-.811,2.56-2.219,4.923-4.227,7.092-2.008,2.171-4.729,3.936-8.16,5.295-3.434,1.36-7.807,2.04-13.115,2.04h-9.521v-1.942h8.549c4.339,0,7.658-.875,9.959-2.623,2.298-1.749,3.853-4.047,4.663-6.898.81-2.849,1.214-5.926,1.214-9.229,0-6.152-1.102-10.75-3.303-13.795-2.203-3.044-6.023-4.566-11.464-4.566-2.786,0-4.614.551-5.489,1.651-.875,1.103-1.312,3.337-1.312,6.703v47.994c0,2.396.258,4.194.776,5.392.519,1.199,1.49,1.991,2.916,2.38,1.424.389,3.529.617,6.314.681v2.04c-1.749-.129-4.018-.21-6.801-.243-2.785-.031-5.668-.048-8.646-.048-2.592,0-5.068.017-7.433.048-2.364.033-4.356.114-5.975.243v-1.943c2.201-.129,3.853-.389,4.954-.777s1.83-1.165,2.187-2.331c.354-1.166.534-2.915.534-5.246v-48.188c0-2.396-.18-4.16-.534-5.294-.356-1.133-1.103-1.91-2.234-2.332-1.134-.421-2.769-.663-4.906-.729v-1.943Z" fill="#0e0400"/>
  <path d="M324.325,77.146c1.879,0,3.481.389,4.81,1.166,1.327.777,2.331,1.766,3.012,2.963.681,1.199,1.021,2.543,1.021,4.032,0,1.879-.568,3.482-1.701,4.809-1.133,1.329-2.639,1.992-4.518,1.992-1.619,0-2.996-.486-4.129-1.457-1.133-.972-1.699-2.299-1.699-3.983,0-1.424.371-2.639,1.117-3.644.744-1.003,1.603-1.797,2.574-2.38-.648-.518-1.426-.744-2.332-.681-1.748.065-3.368.632-4.857,1.7-1.49,1.069-2.754,2.429-3.789,4.081-1.037,1.651-1.846,3.417-2.429,5.295-.583,1.879-.874,3.628-.874,5.246v22.345c0,3.174.874,5.295,2.623,6.363,1.748,1.069,4.178,1.604,7.286,1.604v2.04c-1.491-.063-3.611-.146-6.363-.243-2.754-.097-5.651-.146-8.695-.146-2.331,0-4.663.049-6.995.146-2.332.098-4.113.18-5.344.243v-2.04c2.526,0,4.324-.486,5.393-1.457,1.068-.972,1.604-2.817,1.604-5.538v-30.506c0-2.915-.486-5.067-1.458-6.461-.972-1.392-2.817-2.089-5.538-2.089v-2.04c2.072.194,4.081.292,6.023.292,2.201,0,4.259-.113,6.17-.341,1.91-.226,3.675-.565,5.295-1.02v11.172c.777-1.877,1.812-3.691,3.109-5.44,1.294-1.748,2.849-3.189,4.662-4.323,1.812-1.132,3.821-1.7,6.023-1.7Z" fill="#0e0400"/>
  <path d="M354.442,77.438v42.164c0,2.721.535,4.566,1.604,5.538,1.068.971,2.865,1.457,5.392,1.457v2.04c-1.103-.063-2.802-.146-5.101-.243-2.3-.097-4.648-.146-7.043-.146-2.268,0-4.6.049-6.996.146-2.396.098-4.177.18-5.343.243v-2.04c2.526,0,4.323-.486,5.392-1.457,1.069-.972,1.604-2.817,1.604-5.538v-30.506c0-2.915-.486-5.067-1.457-6.461-.972-1.392-2.818-2.089-5.538-2.089v-2.04c2.072.194,4.081.292,6.023.292,2.201,0,4.259-.113,6.169-.341,1.91-.226,3.676-.565,5.295-1.02ZM348.613,54.024c2.007,0,3.692.632,5.052,1.895,1.36,1.263,2.041,2.834,2.041,4.712s-.681,3.449-2.041,4.712c-1.359,1.263-3.045,1.895-5.052,1.895s-3.691-.632-5.052-1.895-2.04-2.833-2.04-4.712.68-3.449,2.04-4.712,3.043-1.895,5.052-1.895Z" fill="#0e0400"/>
  <path d="M411.276,78.507v1.943c-1.23.194-2.38.825-3.449,1.895s-2.057,2.899-2.963,5.489l-15.35,41.192h-3.206l-17.683-43.039c-1.036-2.525-2.057-4.063-3.06-4.614-1.005-.55-1.862-.826-2.575-.826v-2.04c1.555.131,3.158.243,4.81.34,1.651.098,3.481.146,5.489.146s4.129-.048,6.363-.146c2.234-.097,4.323-.209,6.267-.34v2.04c-1.555,0-2.932.098-4.129.292-1.199.194-1.977.762-2.332,1.7-.356.939-.146,2.542.632,4.809l11.949,30.117-.777.777,10.008-26.522c.971-2.59,1.359-4.679,1.165-6.267-.194-1.586-.874-2.784-2.04-3.595-1.166-.809-2.851-1.278-5.052-1.408v-1.943c1.101.065,2.12.114,3.06.146.939.033,1.847.065,2.721.098.875.033,1.797.049,2.77.049,1.424,0,2.769-.032,4.031-.098,1.264-.063,2.381-.129,3.352-.194Z" fill="#0e0400"/>
  <path d="M427.015,129.317c-2.72,0-5.052-.519-6.995-1.554s-3.4-2.461-4.372-4.275c-.972-1.812-1.457-3.886-1.457-6.218,0-2.849.646-5.164,1.942-6.946,1.295-1.78,2.964-3.221,5.004-4.323,2.04-1.101,4.209-2.023,6.51-2.769,2.298-.744,4.469-1.457,6.509-2.138,2.04-.68,3.724-1.473,5.052-2.38,1.326-.906,1.992-2.104,1.992-3.595v-6.606c0-2.332-.374-4.192-1.117-5.586-.746-1.393-1.749-2.381-3.012-2.964-1.264-.583-2.77-.874-4.518-.874-1.491,0-3.078.211-4.761.632-1.685.422-3.013,1.247-3.983,2.477,1.424.389,2.606,1.151,3.546,2.283.938,1.135,1.409,2.543,1.409,4.227,0,1.813-.6,3.239-1.798,4.274-1.199,1.037-2.705,1.555-4.518,1.555-2.009,0-3.497-.632-4.469-1.895s-1.458-2.735-1.458-4.421c0-1.748.438-3.172,1.312-4.274.874-1.101,2.023-2.137,3.449-3.108,1.554-1.035,3.545-1.91,5.975-2.623,2.428-.712,5.132-1.069,8.111-1.069,2.785,0,5.198.309,7.238.923,2.041.616,3.74,1.604,5.101,2.964,1.618,1.49,2.687,3.352,3.206,5.586.518,2.234.777,4.939.777,8.112v26.814c0,1.619.209,2.769.631,3.448.421.681,1.117,1.021,2.09,1.021.646,0,1.277-.161,1.895-.486.614-.323,1.343-.809,2.186-1.457l.971,1.651c-1.359,1.103-2.736,1.977-4.129,2.624-1.393.646-3.156.971-5.295.971-2.072,0-3.756-.324-5.051-.971-1.297-.647-2.252-1.587-2.867-2.818-.615-1.229-.922-2.752-.922-4.565-1.686,2.72-3.692,4.794-6.023,6.218-2.332,1.425-5.053,2.137-8.161,2.137ZM431.678,124.654c1.812,0,3.513-.518,5.101-1.555,1.587-1.035,3.061-2.589,4.421-4.663v-19.333c-.714,1.036-1.749,1.928-3.109,2.672-1.359.745-2.817,1.506-4.371,2.282-1.555.777-3.029,1.669-4.421,2.672-1.394,1.005-2.543,2.283-3.449,3.838-.907,1.555-1.36,3.531-1.36,5.926,0,2.526.646,4.518,1.943,5.976,1.295,1.457,3.043,2.186,5.246,2.186Z" fill="#0e0400"/>
  <path d="M479.379,62.476v16.128h13.406v1.942h-13.406v38.182c0,2.656.486,4.534,1.457,5.635.972,1.102,2.363,1.651,4.178,1.651,1.684,0,3.189-.68,4.518-2.04,1.326-1.36,2.478-3.658,3.449-6.898l1.846.681c-.777,3.434-2.154,6.331-4.129,8.695-1.977,2.363-4.875,3.546-8.695,3.546-2.203,0-4.049-.276-5.537-.826-1.491-.55-2.786-1.344-3.887-2.38-1.426-1.489-2.396-3.27-2.914-5.344-.52-2.072-.777-4.824-.777-8.258v-32.644h-8.938v-1.942h8.938v-14.185c2.006-.063,3.886-.243,5.635-.534,1.748-.292,3.367-.761,4.857-1.409Z" fill="#0e0400"/>
  <path d="M520.669,77.146c5.698,0,10.168,1.717,13.407,5.149,3.238,3.434,4.857,8.874,4.857,16.321h-33.518l-.194-1.846h23.414c.063-3.173-.194-6.104-.777-8.792-.583-2.688-1.491-4.841-2.72-6.461-1.231-1.618-2.852-2.429-4.857-2.429-2.786,0-5.198,1.474-7.238,4.421-2.041,2.947-3.288,7.659-3.74,14.135l.291.486c-.065.907-.131,1.895-.194,2.963-.065,1.069-.097,2.122-.097,3.157,0,4.47.68,8.227,2.039,11.271,1.361,3.045,3.142,5.328,5.344,6.849,2.201,1.522,4.436,2.283,6.704,2.283,1.749,0,3.448-.274,5.101-.825,1.651-.55,3.221-1.489,4.711-2.818,1.49-1.326,2.818-3.157,3.984-5.488l1.942.776c-.776,2.203-1.976,4.372-3.595,6.51s-3.691,3.871-6.217,5.197c-2.527,1.327-5.475,1.992-8.842,1.992-4.534,0-8.485-1.021-11.853-3.061-3.368-2.04-5.96-4.97-7.772-8.792-1.813-3.821-2.72-8.355-2.72-13.602,0-5.764.938-10.687,2.817-14.768,1.877-4.08,4.518-7.204,7.918-9.375,3.4-2.169,7.335-3.255,11.804-3.255Z" fill="#0e0400"/>
</svg>