<?xml version="1.0" encoding="UTF-8"?>
<svg id="a" data-name="Layer 1" xmlns="http://www.w3.org/2000/svg" width="209.159mm" height="70.795mm" viewBox="0 0 592.892 200.68">
  <path d="M53.758,146.902v-1.846c2.784-.131,5.149-.859,7.092-2.187,1.943-1.328,3.4-3.546,4.372-6.654.972-3.109,1.458-7.352,1.458-12.728v-53.337c0-2.396-.179-4.16-.535-5.294-.356-1.133-1.085-1.91-2.186-2.332-1.102-.421-2.753-.663-4.955-.729v-1.943c1.489.065,3.4.131,5.732.194,2.332.065,4.792.098,7.384.098,2.526,0,5.003-.032,7.432-.098,2.429-.063,4.42-.129,5.975-.194v1.943c-2.137.065-3.757.308-4.857.729-1.102.422-1.846,1.199-2.234,2.332-.389,1.134-.583,2.898-.583,5.294v35.559c0,2.656-.017,5.537-.049,8.646-.033,3.108-.162,6.12-.388,9.035-.228,2.914-.632,5.473-1.215,7.675-1.166,4.533-3.643,8.307-7.432,11.318-3.789,3.012-8.792,4.518-15.01,4.518Z" fill="#f5eddf"/>
  <path d="M123.805,77.146c2.59,0,4.712.34,6.364,1.021,1.651.68,3.027,1.603,4.129,2.769,1.166,1.231,1.992,2.817,2.478,4.761.485,1.943.729,4.566.729,7.869v26.037c0,2.721.534,4.566,1.603,5.538,1.069.971,2.866,1.457,5.392,1.457v2.04c-1.102-.063-2.817-.146-5.149-.243-2.332-.097-4.631-.146-6.897-.146-2.203,0-4.389.049-6.558.146-2.171.098-3.806.18-4.906.243v-2.04c2.201,0,3.756-.486,4.664-1.457.906-.972,1.36-2.817,1.36-5.538v-28.757c0-1.878-.162-3.578-.486-5.101-.325-1.521-1.005-2.753-2.04-3.692-1.037-.938-2.591-1.408-4.663-1.408-2.397,0-4.518.68-6.364,2.04-1.846,1.36-3.303,3.223-4.372,5.586-1.069,2.365-1.603,5.004-1.603,7.918v23.414c0,2.721.469,4.566,1.409,5.538.938.971,2.477,1.457,4.615,1.457v2.04c-1.037-.063-2.608-.146-4.712-.243-2.105-.097-4.292-.146-6.558-.146-2.203,0-4.502.049-6.898.146-2.396.098-4.177.18-5.343.243v-2.04c2.526,0,4.323-.486,5.392-1.457,1.069-.972,1.603-2.817,1.603-5.538v-30.506c0-2.915-.486-5.067-1.458-6.461-.971-1.392-2.817-2.089-5.538-2.089v-2.04c2.072.194,4.081.292,6.023.292,2.201,0,4.258-.113,6.169-.341,1.91-.226,3.675-.565,5.295-1.02v10.59c1.683-4.016,3.998-6.833,6.946-8.453,2.946-1.618,6.072-2.429,9.375-2.429Z" fill="#f5eddf"/>
  <path d="M149.745,59.853c1.489.065,3.416.131,5.78.194,2.364.065,4.712.098,7.044.098,3.109,0,6.072-.032,8.889-.098,2.817-.063,4.809-.097,5.975-.097,7.253,0,12.678,1.425,16.273,4.274,3.595,2.851,5.392,6.509,5.392,10.979,0,2.268-.534,4.518-1.603,6.752s-2.802,4.242-5.198,6.023c-2.397,1.782-5.571,3.19-9.521,4.226v.194c5.44.583,9.715,1.749,12.824,3.498,3.109,1.748,5.31,3.837,6.606,6.267,1.295,2.429,1.943,4.971,1.943,7.626,0,3.822-.971,7.141-2.915,9.958-1.943,2.817-4.745,5.004-8.404,6.558-3.66,1.555-8.048,2.332-13.164,2.332-1.425,0-3.58-.049-6.46-.146-2.883-.098-6.364-.146-10.444-.146-2.462,0-4.875.017-7.238.048-2.365.033-4.291.114-5.78.243v-1.943c2.201-.129,3.853-.389,4.955-.777,1.101-.389,1.829-1.165,2.186-2.331.355-1.166.534-2.915.534-5.246v-48.188c0-2.396-.179-4.16-.534-5.294-.357-1.133-1.102-1.91-2.234-2.332-1.134-.421-2.769-.663-4.906-.729v-1.943ZM175.393,61.797c-2.786,0-4.615.551-5.489,1.651-.875,1.103-1.312,3.337-1.312,6.703v48.188c0,2.268.194,3.983.583,5.148.388,1.166,1.083,1.943,2.088,2.332,1.003.389,2.478.583,4.42.583,5.83,0,10.056-1.473,12.679-4.421,2.623-2.946,3.935-7.141,3.935-12.581,0-4.986-1.312-8.841-3.935-11.562-2.623-2.72-6.946-4.08-12.97-4.08h-9.424v-1.651h8.355c3.561,0,6.315-.729,8.258-2.187,1.943-1.457,3.27-3.399,3.983-5.829.712-2.429,1.069-5.035,1.069-7.82,0-4.792-.94-8.403-2.817-10.833-1.879-2.429-5.021-3.643-9.424-3.643Z" fill="#f5eddf"/>
  <path d="M235.528,59.853c1.489.065,3.416.131,5.78.194,2.364.065,4.712.098,7.044.098,3.109,0,6.072-.032,8.889-.098,2.817-.063,4.809-.097,5.975-.097,8.225,0,14.378,1.781,18.459,5.343,4.081,3.562,6.121,8.161,6.121,13.796,0,2.332-.405,4.777-1.214,7.335-.811,2.56-2.219,4.923-4.226,7.092-2.008,2.171-4.729,3.936-8.161,5.295-3.434,1.36-7.806,2.04-13.115,2.04h-9.521v-1.942h8.549c4.338,0,7.658-.875,9.958-2.623,2.298-1.749,3.853-4.047,4.664-6.898.809-2.849,1.214-5.926,1.214-9.229,0-6.152-1.102-10.75-3.303-13.795-2.203-3.044-6.023-4.566-11.464-4.566-2.786,0-4.615.551-5.489,1.651-.875,1.103-1.312,3.337-1.312,6.703v47.994c0,2.396.258,4.194.777,5.392.518,1.199,1.489,1.991,2.915,2.38,1.424.389,3.529.617,6.315.681v2.04c-1.749-.129-4.017-.21-6.801-.243-2.786-.031-5.668-.048-8.647-.048-2.591,0-5.068.017-7.432.048-2.365.033-4.356.114-5.975.243v-1.943c2.201-.129,3.853-.389,4.955-.777,1.101-.389,1.829-1.165,2.186-2.331.355-1.166.534-2.915.534-5.246v-48.188c0-2.396-.179-4.16-.534-5.294-.357-1.133-1.102-1.91-2.234-2.332-1.134-.421-2.769-.663-4.906-.729v-1.943Z" fill="#f5eddf"/>
  <path d="M324.325,77.146c1.878,0,3.481.389,4.809,1.166,1.327.777,2.332,1.766,3.012,2.963.68,1.199,1.02,2.543,1.02,4.032,0,1.879-.567,3.482-1.7,4.809-1.134,1.329-2.64,1.992-4.518,1.992-1.62,0-2.997-.486-4.129-1.457-1.134-.972-1.7-2.299-1.7-3.983,0-1.424.372-2.639,1.117-3.644.744-1.003,1.603-1.797,2.575-2.38-.648-.518-1.425-.744-2.332-.681-1.749.065-3.369.632-4.858,1.7-1.491,1.069-2.753,2.429-3.789,4.081-1.037,1.651-1.846,3.417-2.429,5.295-.583,1.879-.874,3.628-.874,5.246v22.345c0,3.174.874,5.295,2.623,6.363,1.749,1.069,4.177,1.604,7.286,1.604v2.04c-1.491-.063-3.611-.146-6.363-.243-2.754-.097-5.651-.146-8.695-.146-2.332,0-4.663.049-6.995.146-2.332.098-4.114.18-5.343.243v-2.04c2.526,0,4.323-.486,5.392-1.457,1.069-.972,1.603-2.817,1.603-5.538v-30.506c0-2.915-.486-5.067-1.458-6.461-.971-1.392-2.817-2.089-5.538-2.089v-2.04c2.072.194,4.081.292,6.023.292,2.201,0,4.258-.113,6.169-.341,1.91-.226,3.675-.565,5.295-1.02v11.172c.777-1.877,1.812-3.691,3.109-5.44,1.294-1.748,2.849-3.189,4.663-4.323,1.812-1.132,3.821-1.7,6.023-1.7Z" fill="#f5eddf"/>
  <path d="M354.442,77.438v42.164c0,2.721.534,4.566,1.603,5.538,1.068.971,2.866,1.457,5.392,1.457v2.04c-1.102-.063-2.802-.146-5.101-.243-2.3-.097-4.648-.146-7.043-.146-2.268,0-4.6.049-6.995.146-2.396.098-4.177.18-5.343.243v-2.04c2.526,0,4.323-.486,5.392-1.457,1.069-.972,1.603-2.817,1.603-5.538v-30.506c0-2.915-.486-5.067-1.458-6.461-.971-1.392-2.817-2.089-5.538-2.089v-2.04c2.072.194,4.081.292,6.023.292,2.201,0,4.258-.113,6.169-.341,1.91-.226,3.675-.565,5.295-1.02ZM348.612,54.024c2.007,0,3.692.632,5.052,1.895,1.36,1.263,2.04,2.834,2.04,4.712s-.68,3.449-2.04,4.712c-1.36,1.263-3.045,1.895-5.052,1.895s-3.691-.632-5.052-1.895-2.04-2.833-2.04-4.712.68-3.449,2.04-4.712,3.043-1.895,5.052-1.895Z" fill="#f5eddf"/>
  <path d="M411.276,78.507v1.943c-1.231.194-2.38.825-3.449,1.895-1.068,1.068-2.057,2.899-2.963,5.489l-15.35,41.192h-3.206l-17.682-43.039c-1.037-2.525-2.057-4.063-3.06-4.614-1.005-.55-1.863-.826-2.575-.826v-2.04c1.555.131,3.158.243,4.809.34,1.652.098,3.481.146,5.489.146s4.129-.048,6.363-.146c2.235-.097,4.323-.209,6.267-.34v2.04c-1.555,0-2.932.098-4.129.292-1.199.194-1.977.762-2.332,1.7-.356.939-.146,2.542.632,4.809l11.95,30.117-.777.777,10.007-26.522c.972-2.59,1.36-4.679,1.166-6.267-.194-1.586-.874-2.784-2.04-3.595-1.166-.809-2.851-1.278-5.052-1.408v-1.943c1.101.065,2.121.114,3.06.146.938.033,1.846.065,2.72.098.875.033,1.797.049,2.769.049,1.424,0,2.769-.032,4.032-.098,1.263-.063,2.38-.129,3.352-.194Z" fill="#f5eddf"/>
  <path d="M427.015,129.317c-2.72,0-5.052-.519-6.995-1.554s-3.4-2.461-4.372-4.275c-.971-1.812-1.457-3.886-1.457-6.218,0-2.849.646-5.164,1.943-6.946,1.295-1.78,2.963-3.221,5.003-4.323,2.04-1.101,4.209-2.023,6.509-2.769,2.298-.744,4.469-1.457,6.509-2.138,2.04-.68,3.724-1.473,5.052-2.38,1.327-.906,1.992-2.104,1.992-3.595v-6.606c0-2.332-.374-4.192-1.117-5.586-.745-1.393-1.749-2.381-3.012-2.964s-2.769-.874-4.518-.874c-1.491,0-3.077.211-4.76.632-1.685.422-3.012,1.247-3.983,2.477,1.424.389,2.606,1.151,3.546,2.283.938,1.135,1.409,2.543,1.409,4.227,0,1.813-.6,3.239-1.797,4.274-1.199,1.037-2.705,1.555-4.518,1.555-2.008,0-3.498-.632-4.469-1.895-.972-1.263-1.458-2.735-1.458-4.421,0-1.748.437-3.172,1.312-4.274.875-1.101,2.023-2.137,3.449-3.108,1.554-1.035,3.546-1.91,5.975-2.623,2.429-.712,5.132-1.069,8.112-1.069,2.784,0,5.198.309,7.238.923,2.041.616,3.741,1.604,5.101,2.964,1.618,1.49,2.687,3.352,3.206,5.586.518,2.234.777,4.939.777,8.112v26.814c0,1.619.209,2.769.631,3.448.42.681,1.117,1.021,2.089,1.021.646,0,1.278-.161,1.895-.486.615-.323,1.343-.809,2.186-1.457l.971,1.651c-1.36,1.103-2.737,1.977-4.129,2.624-1.394.646-3.157.971-5.295.971-2.073,0-3.757-.324-5.052-.971-1.296-.647-2.251-1.587-2.866-2.818-.616-1.229-.923-2.752-.923-4.565-1.685,2.72-3.692,4.794-6.023,6.218-2.332,1.425-5.052,2.137-8.161,2.137ZM431.678,124.654c1.812,0,3.513-.518,5.101-1.555,1.586-1.035,3.061-2.589,4.42-4.663v-19.333c-.713,1.036-1.749,1.928-3.109,2.672-1.36.745-2.817,1.506-4.372,2.282-1.555.777-3.029,1.669-4.42,2.672-1.394,1.005-2.543,2.283-3.449,3.838-.908,1.555-1.36,3.531-1.36,5.926,0,2.526.646,4.518,1.943,5.976,1.295,1.457,3.043,2.186,5.246,2.186Z" fill="#f5eddf"/>
  <path d="M479.379,62.476v16.128h13.407v1.942h-13.407v38.182c0,2.656.486,4.534,1.457,5.635.972,1.102,2.364,1.651,4.178,1.651,1.684,0,3.189-.68,4.518-2.04,1.327-1.36,2.478-3.658,3.449-6.898l1.846.681c-.777,3.434-2.154,6.331-4.129,8.695-1.977,2.363-4.875,3.546-8.695,3.546-2.203,0-4.049-.276-5.538-.826-1.491-.55-2.786-1.344-3.886-2.38-1.425-1.489-2.397-3.27-2.915-5.344-.519-2.072-.777-4.824-.777-8.258v-32.644h-8.938v-1.942h8.938v-14.185c2.007-.063,3.886-.243,5.635-.534,1.749-.292,3.367-.761,4.858-1.409Z" fill="#f5eddf"/>
  <path d="M520.669,77.146c5.699,0,10.168,1.717,13.407,5.149,3.238,3.434,4.858,8.874,4.858,16.321h-33.518l-.194-1.846h23.414c.063-3.173-.194-6.104-.777-8.792-.583-2.688-1.491-4.841-2.72-6.461-1.231-1.618-2.851-2.429-4.857-2.429-2.786,0-5.198,1.474-7.238,4.421-2.04,2.947-3.288,7.659-3.74,14.135l.292.486c-.065.907-.13,1.895-.194,2.963-.065,1.069-.097,2.122-.097,3.157,0,4.47.68,8.227,2.04,11.271,1.36,3.045,3.141,5.328,5.344,6.849,2.201,1.522,4.436,2.283,6.704,2.283,1.749,0,3.449-.274,5.1-.825,1.652-.55,3.221-1.489,4.712-2.818,1.489-1.326,2.817-3.157,3.983-5.488l1.943.776c-.777,2.203-1.976,4.372-3.594,6.51-1.62,2.138-3.692,3.871-6.218,5.197-2.526,1.327-5.474,1.992-8.841,1.992-4.534,0-8.485-1.021-11.853-3.061-3.368-2.04-5.959-4.97-7.772-8.792-1.814-3.821-2.72-8.355-2.72-13.602,0-5.764.938-10.687,2.817-14.768,1.877-4.08,4.518-7.204,7.918-9.375,3.4-2.169,7.335-3.255,11.804-3.255Z" fill="#f5eddf"/>
</svg>