<?xml version="1.0" encoding="UTF-8"?>
<svg id="a" data-name="Layer 1" xmlns="http://www.w3.org/2000/svg" width="215.234mm" height="174.492mm" viewBox="0 0 610.113 494.622">
  <g>
    <path d="M262.174,369.26c1.43.063,3.279.125,5.55.187,2.27.063,4.524.093,6.763.093,2.984,0,5.83-.03,8.534-.093,2.705-.061,4.617-.093,5.737-.093,7.896,0,13.805,1.711,17.722,5.13,3.918,3.42,5.876,7.835,5.876,13.245,0,2.239-.389,4.587-1.165,7.042-.778,2.457-2.131,4.727-4.058,6.809-1.929,2.084-4.54,3.777-7.835,5.083-3.297,1.306-7.494,1.958-12.593,1.958h-9.141v-1.865h8.208c4.165,0,7.353-.839,9.561-2.519,2.207-1.679,3.699-3.885,4.478-6.623.776-2.735,1.166-5.689,1.166-8.861,0-5.907-1.059-10.322-3.172-13.245-2.114-2.922-5.782-4.384-11.006-4.384-2.675,0-4.431.529-5.271,1.585-.839,1.058-1.259,3.204-1.259,6.436v46.078c0,2.301.248,4.027.746,5.177.497,1.151,1.43,1.912,2.798,2.285,1.367.373,3.389.592,6.063.653v1.959c-1.68-.124-3.856-.201-6.529-.233-2.675-.03-5.442-.046-8.302-.046-2.487,0-4.866.016-7.136.046-2.271.032-4.183.109-5.736.233v-1.866c2.113-.124,3.699-.373,4.757-.746,1.057-.373,1.757-1.119,2.099-2.238.342-1.12.514-2.798.514-5.037v-46.264c0-2.3-.172-3.995-.514-5.083-.342-1.087-1.058-1.833-2.145-2.239-1.089-.403-2.658-.637-4.711-.699v-1.866Z" fill="#19281a"/>
    <path d="M347.426,385.863c1.803,0,3.342.373,4.617,1.119,1.274.746,2.239,1.695,2.892,2.845.653,1.151.979,2.441.979,3.871,0,1.804-.545,3.343-1.632,4.617-1.089,1.275-2.535,1.912-4.338,1.912-1.555,0-2.877-.466-3.964-1.399-1.089-.933-1.633-2.207-1.633-3.824,0-1.367.357-2.533,1.073-3.498.714-.963,1.539-1.726,2.472-2.285-.622-.497-1.368-.714-2.238-.653-1.68.062-3.234.606-4.664,1.632-1.432,1.026-2.644,2.332-3.638,3.917-.995,1.585-1.772,3.281-2.332,5.083-.56,1.804-.839,3.483-.839,5.037v21.453c0,3.047.839,5.083,2.518,6.11,1.68,1.026,4.011,1.539,6.996,1.539v1.959c-1.432-.061-3.468-.14-6.109-.233-2.644-.093-5.426-.14-8.349-.14-2.238,0-4.477.046-6.716.14-2.238.093-3.949.172-5.13.233v-1.959c2.425,0,4.15-.466,5.177-1.399s1.539-2.705,1.539-5.316v-29.289c0-2.798-.467-4.865-1.399-6.203-.933-1.336-2.705-2.005-5.316-2.005v-1.959c1.989.187,3.918.28,5.783.28,2.113,0,4.088-.108,5.923-.326,1.833-.217,3.528-.544,5.084-.979v10.727c.746-1.803,1.739-3.544,2.984-5.223,1.243-1.679,2.735-3.062,4.478-4.151,1.739-1.087,3.668-1.632,5.782-1.632Z" fill="#19281a"/>
    <path d="M376.341,386.143v40.481c0,2.611.513,4.384,1.539,5.316s2.752,1.399,5.177,1.399v1.959c-1.059-.061-2.69-.14-4.896-.233-2.208-.093-4.463-.14-6.763-.14-2.178,0-4.416.046-6.716.14-2.302.093-4.011.172-5.13.233v-1.959c2.425,0,4.15-.466,5.177-1.399,1.025-.933,1.539-2.705,1.539-5.316v-29.289c0-2.798-.467-4.865-1.399-6.203-.933-1.336-2.705-2.005-5.316-2.005v-1.959c1.989.187,3.917.28,5.782.28,2.113,0,4.089-.108,5.924-.326,1.833-.217,3.528-.544,5.083-.979ZM370.745,363.664c1.927,0,3.545.606,4.851,1.819,1.306,1.212,1.959,2.721,1.959,4.523s-.653,3.312-1.959,4.524c-1.306,1.213-2.924,1.819-4.851,1.819s-3.544-.606-4.85-1.819c-1.307-1.212-1.959-2.719-1.959-4.524s.652-3.311,1.959-4.523c1.306-1.213,2.922-1.819,4.85-1.819Z" fill="#19281a"/>
    <path d="M430.907,387.169v1.866c-1.182.187-2.285.793-3.311,1.819-1.026,1.026-1.976,2.784-2.846,5.27l-14.737,39.548h-3.078l-16.976-41.321c-.995-2.425-1.975-3.901-2.938-4.43-.965-.528-1.788-.793-2.472-.793v-1.959c1.492.125,3.031.233,4.617.327s3.342.14,5.271.14,3.964-.046,6.109-.14,4.15-.201,6.016-.327v1.959c-1.492,0-2.813.093-3.964.28-1.151.187-1.897.731-2.238,1.632-.343.902-.141,2.441.606,4.617l11.473,28.915-.746.746,9.606-25.464c.934-2.486,1.307-4.492,1.12-6.016-.187-1.523-.84-2.673-1.959-3.451-1.119-.777-2.737-1.227-4.851-1.353v-1.866c1.057.063,2.036.109,2.938.14.9.032,1.772.062,2.611.093.84.032,1.726.046,2.658.046,1.367,0,2.658-.03,3.871-.093,1.213-.061,2.285-.124,3.218-.187Z" fill="#19281a"/>
    <path d="M446.017,435.951c-2.611,0-4.851-.499-6.716-1.492-1.865-.994-3.265-2.363-4.197-4.104-.933-1.74-1.399-3.731-1.399-5.97,0-2.736.621-4.958,1.865-6.669,1.244-1.709,2.846-3.092,4.804-4.15,1.959-1.057,4.042-1.943,6.25-2.658,2.206-.714,4.29-1.399,6.249-2.052s3.575-1.414,4.851-2.285c1.273-.87,1.912-2.02,1.912-3.451v-6.343c0-2.239-.358-4.025-1.072-5.363-.716-1.336-1.68-2.285-2.892-2.845-1.213-.56-2.659-.84-4.338-.84-1.431,0-2.954.203-4.57.606-1.617.405-2.892,1.198-3.824,2.378,1.367.373,2.502,1.105,3.404,2.192.901,1.089,1.353,2.441,1.353,4.058,0,1.742-.575,3.11-1.726,4.104-1.151.996-2.597,1.493-4.337,1.493-1.929,0-3.358-.606-4.291-1.819-.933-1.213-1.398-2.626-1.398-4.244,0-1.679.419-3.046,1.259-4.104.84-1.057,1.942-2.052,3.312-2.985,1.492-.994,3.404-1.833,5.736-2.519,2.332-.684,4.928-1.026,7.788-1.026,2.673,0,4.99.296,6.949.886,1.959.591,3.591,1.539,4.896,2.845,1.554,1.431,2.58,3.218,3.078,5.363.497,2.146.746,4.743.746,7.789v25.744c0,1.555.201,2.658.606,3.312.404.653,1.073.979,2.006.979.62,0,1.227-.154,1.818-.466.591-.311,1.29-.777,2.099-1.399l.933,1.585c-1.306,1.058-2.627,1.897-3.964,2.519-1.338.621-3.031.933-5.083.933-1.991,0-3.607-.312-4.851-.933-1.245-.621-2.161-1.523-2.752-2.705-.592-1.181-.886-2.642-.886-4.384-1.618,2.612-3.545,4.603-5.783,5.97-2.238,1.368-4.851,2.052-7.835,2.052ZM450.495,431.474c1.74,0,3.372-.497,4.896-1.493,1.523-.994,2.938-2.486,4.244-4.477v-18.562c-.686.996-1.679,1.851-2.985,2.565-1.306.716-2.704,1.446-4.197,2.192-1.492.746-2.907,1.602-4.243,2.565-1.338.964-2.441,2.192-3.312,3.684-.872,1.492-1.306,3.39-1.306,5.69,0,2.425.62,4.337,1.865,5.736,1.243,1.399,2.922,2.099,5.037,2.099Z" fill="#19281a"/>
    <path d="M496.29,371.779v15.483h12.872v1.866h-12.872v36.657c0,2.551.467,4.354,1.399,5.41.933,1.058,2.27,1.585,4.011,1.585,1.616,0,3.062-.653,4.338-1.958,1.273-1.306,2.378-3.513,3.311-6.623l1.772.653c-.746,3.297-2.068,6.079-3.964,8.348-1.897,2.269-4.68,3.404-8.349,3.404-2.114,0-3.887-.265-5.316-.792-1.431-.528-2.675-1.29-3.73-2.286-1.369-1.43-2.302-3.139-2.799-5.13-.498-1.989-.746-4.632-.746-7.928v-31.34h-8.581v-1.866h8.581v-13.618c1.927-.061,3.731-.233,5.41-.513s3.232-.73,4.663-1.353Z" fill="#19281a"/>
    <path d="M535.933,385.863c5.472,0,9.762,1.648,12.872,4.943,3.109,3.297,4.664,8.52,4.664,15.67h-32.18l-.187-1.772h22.479c.062-3.046-.187-5.86-.746-8.441-.56-2.58-1.431-4.647-2.611-6.203-1.182-1.554-2.737-2.332-4.664-2.332-2.674,0-4.99,1.416-6.948,4.244-1.959,2.831-3.157,7.354-3.592,13.572l.28.466c-.062.872-.125,1.819-.187,2.845-.062,1.026-.094,2.038-.094,3.031,0,4.291.653,7.898,1.959,10.82,1.306,2.924,3.016,5.116,5.13,6.576,2.113,1.462,4.259,2.192,6.437,2.192,1.679,0,3.311-.264,4.896-.793,1.586-.527,3.093-1.43,4.524-2.705,1.43-1.273,2.705-3.031,3.824-5.27l1.865.747c-.746,2.115-1.897,4.197-3.451,6.249-1.555,2.052-3.545,3.717-5.97,4.99-2.425,1.274-5.255,1.912-8.488,1.912-4.353,0-8.146-.979-11.379-2.938-3.234-1.959-5.722-4.771-7.462-8.441-1.742-3.668-2.612-8.021-2.612-13.059,0-5.534.901-10.26,2.705-14.178,1.803-3.917,4.338-6.917,7.603-9.001,3.265-2.083,7.042-3.125,11.332-3.125Z" fill="#19281a"/>
  </g>
  <rect x="134.518" y="55.061" width="55.373" height="55.373" fill="#19281a"/>
  <path d="M459.346,230.683c-5.933-10.105-15.837-18.858-29.71-26.273-13.882-7.409-32.677-12.188-56.387-14.349v-.808c17.513-3.771,31.729-9.431,42.645-16.976,10.912-7.539,18.858-16.029,23.847-25.465,4.983-9.428,7.478-18.855,7.478-28.292,0-18.594-7.882-33.812-23.647-45.672-15.764-11.854-39.548-17.787-71.341-17.787h-88.921v59.35c17.382,0,45.622,7.21,55.376,32.044v-48.953c0-14.009,1.679-23.307,5.052-27.891,3.364-4.579,10.572-6.868,21.624-6.868,16.165,0,27.749,5.052,34.759,15.157,7.002,10.105,10.509,25.128,10.509,45.065,0,11.59-1.351,22.432-4.041,32.537-2.696,10.105-7.821,18.19-15.361,24.254-7.545,6.06-18.19,9.094-31.933,9.094h-20.819c-.253-11.106-1.267-20.143-3.058-27.081-2.086-8.083-5.629-14.683-10.632-19.806-4.451-4.579-10.218-8.35-17.304-11.316-7.092-2.963-16.475-4.445-28.149-4.445-14.46,0-28.441,3.097-40.671,9.294-12.236,6.203-21.828,16.976-28.773,32.333v-45.605h-55.373v197.177c0,22.365-2.019,40.018-6.063,52.953-4.041,12.932-10.041,22.089-17.987,27.484-7.949,5.386-17.446,8.35-28.493,8.89v8.083c28.292,0,50.925-6.264,67.903-18.795,16.973-12.528,28.019-28.228,33.144-47.087,2.423-9.164,4.105-19.806,5.052-31.93.941-12.127,1.476-24.658,1.615-37.589.024-2.355.044-4.643.064-6.936l.137-.076v-76.256c0-10.506,2.015-20.006,6.046-28.493,4.025-8.489,9.592-15.157,16.681-20.009,7.089-4.849,15.857-7.275,25.033-7.275,1.027,0,1.938.108,2.902.167,22.555,2.383,22.758,32.483,22.758,38.799v159.492h98.218c22.365,0,41.494-3.094,57.398-9.297,15.892-6.194,28.089-15.157,36.575-26.877,8.489-11.72,12.734-25.799,12.734-42.241,0-11.043-2.969-21.621-8.89-31.726ZM395.28,313.139c-9.841,12.261-25.805,18.388-47.897,18.388-7.818,0-13.742-.808-17.784-2.423-4.044-1.618-6.874-4.852-8.489-9.704-1.615-4.849-2.423-11.984-2.423-21.418v-102.262h22.632c24.518,0,42.101,5.66,52.746,16.976,10.642,11.316,15.965,27.354,15.965,48.098,0,22.636-4.919,40.085-14.75,52.346Z" fill="#19281a"/>
</svg>