<?xml version="1.0" encoding="UTF-8"?>
<svg id="a" data-name="Layer 1" xmlns="http://www.w3.org/2000/svg" width="180.217mm" height="173.386mm" viewBox="0 0 510.85 491.488">
  <path d="M432.743,232.08c-5.934-10.104-15.836-18.856-29.709-26.273-13.883-7.408-32.676-12.185-56.387-14.349v-.806c17.512-3.772,31.728-9.432,42.644-16.977,10.913-7.539,18.859-16.029,23.847-25.464,4.982-9.429,7.479-18.856,7.479-28.292,0-18.594-7.884-33.815-23.648-45.673-15.764-11.855-39.546-17.786-71.339-17.786h-88.92v59.351c17.382,0,45.622,7.209,55.376,32.043v-48.952c0-14.01,1.677-23.309,5.051-27.893,3.365-4.578,10.574-6.867,21.624-6.867,16.166,0,27.75,5.051,34.76,15.158,7.004,10.104,10.509,25.126,10.509,45.064,0,11.588-1.35,22.432-4.04,32.536-2.696,10.104-7.821,18.19-15.36,24.254-7.545,6.058-18.19,9.094-31.933,9.094h-20.818c-.256-11.106-1.269-20.143-3.059-27.081-2.087-8.083-5.63-14.682-10.633-19.804-4.45-4.581-10.217-8.35-17.304-11.317-7.093-2.964-16.475-4.444-28.149-4.444-14.459,0-28.44,3.094-40.67,9.293-12.236,6.204-21.829,16.977-28.773,32.334v-46.693h-55.373v198.263c0,22.367-2.018,40.019-6.064,52.953-4.04,12.931-10.042,22.09-17.988,27.486-7.949,5.384-17.444,8.348-28.491,8.889v8.083c28.291,0,50.923-6.264,67.903-18.794,16.971-12.53,28.018-28.229,33.143-47.088,2.423-9.162,4.105-19.804,5.054-31.93.942-12.126,1.474-24.656,1.614-37.587.024-2.357.045-4.643.065-6.935l.137-.077v-76.256c0-10.506,2.013-20.006,6.047-28.491,4.025-8.49,9.59-15.158,16.68-20.009,7.09-4.848,15.857-7.274,25.033-7.274,1.026,0,1.938.107,2.901.166,22.557,2.381,22.759,32.483,22.759,38.797v159.493h98.216c22.367,0,41.496-3.095,57.4-9.299,15.889-6.192,28.086-15.155,36.573-26.876,8.49-11.718,12.735-25.797,12.735-42.239,0-11.044-2.97-21.621-8.891-31.728M368.677,314.538c-9.84,12.26-25.806,18.386-47.897,18.386-7.818,0-13.743-.806-17.783-2.423-4.046-1.617-6.876-4.852-8.49-9.703-1.617-4.849-2.423-11.983-2.423-21.419v-102.262h22.631c24.519,0,42.1,5.66,52.745,16.977,10.642,11.314,15.967,27.352,15.967,48.096,0,22.637-4.92,40.087-14.751,52.347" fill="#1a270f"/>
  <g>
    <path d="M254.95,418.27c-3.907,0-7.332-.685-10.274-2.055s-5.239-3.322-6.887-5.86c-1.649-2.536-2.5-5.556-2.55-9.056h8.523c.05,2.842,1.04,5.251,2.969,7.229,1.927,1.979,4.642,2.968,8.143,2.968,3.095,0,5.518-.748,7.269-2.245,1.75-1.495,2.625-3.411,2.625-5.745,0-1.877-.418-3.399-1.256-4.566-.837-1.167-1.979-2.131-3.425-2.893-1.445-.761-3.107-1.445-4.984-2.055-1.878-.608-3.856-1.268-5.937-1.979-4.109-1.37-7.191-3.146-9.246-5.327-2.055-2.181-3.082-5.048-3.082-8.6-.052-2.993.646-5.605,2.093-7.839,1.445-2.232,3.475-3.97,6.088-5.214,2.612-1.242,5.67-1.864,9.171-1.864,3.449,0,6.48.635,9.095,1.902,2.612,1.27,4.654,3.032,6.126,5.29,1.471,2.258,2.232,4.884,2.283,7.876h-8.523c0-1.369-.355-2.675-1.065-3.919-.711-1.242-1.751-2.271-3.12-3.082-1.37-.812-3.045-1.218-5.023-1.218-2.537-.05-4.631.584-6.278,1.902-1.649,1.32-2.474,3.146-2.474,5.479,0,2.081.608,3.68,1.826,4.795,1.218,1.116,2.893,2.043,5.023,2.777,2.131.736,4.566,1.587,7.306,2.55,2.638.863,4.997,1.902,7.078,3.12,2.079,1.218,3.741,2.816,4.984,4.795s1.865,4.49,1.865,7.534c0,2.689-.686,5.188-2.056,7.496-1.369,2.31-3.425,4.186-6.164,5.632-2.74,1.446-6.114,2.169-10.122,2.169Z" fill="#123a5b"/>
    <path d="M299.471,418.27c-3.704,0-6.989-.825-9.855-2.474-2.867-1.647-5.111-3.944-6.735-6.887s-2.435-6.367-2.435-10.274c0-3.957.799-7.432,2.396-10.427,1.599-2.992,3.831-5.327,6.697-7.001,2.866-1.675,6.203-2.512,10.008-2.512,3.703,0,6.926.825,9.666,2.474,2.739,1.649,4.87,3.843,6.393,6.583,1.521,2.739,2.283,5.759,2.283,9.057,0,.508-.014,1.053-.038,1.636-.026.584-.064,1.23-.114,1.94h-29.377c.254,3.653,1.458,6.432,3.615,8.334,2.156,1.902,4.654,2.854,7.496,2.854,2.283,0,4.198-.52,5.746-1.56,1.547-1.04,2.702-2.447,3.463-4.225h8.067c-1.016,3.553-3.032,6.521-6.051,8.904-3.019,2.386-6.761,3.577-11.226,3.577ZM299.471,385.317c-2.689,0-5.073.799-7.153,2.397-2.081,1.598-3.349,3.995-3.806,7.191h21.31c-.152-2.941-1.192-5.275-3.12-7.001-1.929-1.725-4.338-2.588-7.23-2.588Z" fill="#123a5b"/>
    <path d="M339.046,418.27c-3.196,0-5.835-.532-7.915-1.598-2.081-1.065-3.628-2.474-4.643-4.225-1.016-1.75-1.521-3.664-1.521-5.745,0-3.653,1.419-6.545,4.262-8.676,2.841-2.132,6.899-3.197,12.177-3.197h9.894v-.685c0-2.941-.8-5.148-2.397-6.621-1.599-1.471-3.666-2.207-6.203-2.207-2.232,0-4.174.546-5.821,1.637-1.649,1.091-2.652,2.701-3.007,4.832h-8.066c.253-2.739,1.18-5.086,2.777-7.039,1.599-1.953,3.627-3.45,6.089-4.49,2.46-1.04,5.162-1.561,8.104-1.561,5.276,0,9.361,1.383,12.253,4.147,2.893,2.767,4.338,6.533,4.338,11.302v23.212h-7.001l-.686-6.469c-1.065,2.081-2.613,3.831-4.642,5.251-2.03,1.42-4.694,2.131-7.991,2.131ZM340.644,411.725c2.182,0,4.021-.52,5.518-1.56,1.496-1.04,2.664-2.423,3.501-4.148.837-1.724,1.357-3.627,1.561-5.708h-8.98c-3.196,0-5.468.56-6.812,1.675-1.345,1.116-2.017,2.512-2.017,4.186,0,1.726.646,3.082,1.94,4.071,1.294.99,3.057,1.484,5.289,1.484Z" fill="#123a5b"/>
  </g>
  <rect x="107.916" y="55.373" width="55.373" height="55.373" fill="#123a5b"/>
</svg>