<?xml version="1.0" encoding="UTF-8"?>
<svg id="a" data-name="Layer 1" xmlns="http://www.w3.org/2000/svg" width="267.048mm" height="199.618mm" viewBox="0 0 756.987 565.848">
  <path d="M432.743,232.08c-5.934-10.104-15.836-18.856-29.709-26.273-13.883-7.408-32.676-12.185-56.387-14.349v-.806c17.512-3.772,31.728-9.432,42.644-16.977,10.913-7.539,18.859-16.029,23.847-25.464,4.982-9.429,7.479-18.856,7.479-28.292,0-18.594-7.884-33.815-23.648-45.673-15.764-11.855-39.546-17.786-71.339-17.786h-88.92v59.351c17.382,0,45.622,7.209,55.376,32.043v-48.952c0-14.01,1.677-23.309,5.051-27.893,3.365-4.578,10.574-6.867,21.624-6.867,16.166,0,27.75,5.051,34.76,15.158,7.004,10.104,10.509,25.126,10.509,45.064,0,11.588-1.35,22.432-4.04,32.536-2.696,10.104-7.821,18.19-15.36,24.254-7.545,6.058-18.19,9.094-31.933,9.094h-20.818c-.256-11.106-1.269-20.143-3.059-27.081-2.087-8.083-5.63-14.682-10.633-19.804-4.45-4.581-10.217-8.35-17.304-11.317-7.093-2.964-16.475-4.444-28.149-4.444-14.459,0-28.44,3.094-40.67,9.293-12.236,6.204-21.829,16.977-28.773,32.334v-46.693h-55.373v198.263c0,22.367-2.018,40.019-6.064,52.953-4.04,12.931-10.042,22.09-17.988,27.486-7.949,5.384-17.444,8.348-28.491,8.889v8.083c28.291,0,50.923-6.264,67.903-18.794,16.971-12.53,28.018-28.229,33.143-47.088,2.423-9.162,4.105-19.804,5.054-31.93.942-12.126,1.474-24.656,1.614-37.587.024-2.357.045-4.643.065-6.935l.137-.077v-76.256c0-10.506,2.013-20.006,6.047-28.491,4.025-8.49,9.59-15.158,16.68-20.009,7.09-4.848,15.857-7.274,25.033-7.274,1.026,0,1.938.107,2.901.166,22.557,2.381,22.759,32.483,22.759,38.797v159.493h98.216c22.367,0,41.496-3.095,57.4-9.299,15.889-6.192,28.086-15.155,36.573-26.876,8.49-11.718,12.735-25.797,12.735-42.239,0-11.044-2.97-21.621-8.891-31.728M368.677,314.538c-9.84,12.26-25.806,18.386-47.897,18.386-7.818,0-13.743-.806-17.783-2.423-4.046-1.617-6.876-4.852-8.49-9.703-1.617-4.849-2.423-11.983-2.423-21.419v-102.262h22.631c24.519,0,42.1,5.66,52.745,16.977,10.642,11.314,15.967,27.352,15.967,48.096,0,22.637-4.92,40.087-14.751,52.347" fill="#1a270f"/>
  <g>
    <path d="M254.951,418.27c-3.907,0-7.332-.685-10.274-2.055s-5.239-3.322-6.887-5.86c-1.649-2.536-2.5-5.556-2.55-9.056h8.523c.05,2.842,1.04,5.251,2.969,7.229,1.927,1.979,4.642,2.968,8.143,2.968,3.095,0,5.518-.748,7.269-2.245,1.75-1.495,2.625-3.411,2.625-5.745,0-1.877-.418-3.399-1.256-4.566-.837-1.167-1.979-2.131-3.425-2.893-1.445-.761-3.107-1.445-4.984-2.055-1.878-.608-3.856-1.268-5.937-1.979-4.109-1.37-7.191-3.146-9.246-5.327-2.055-2.181-3.082-5.048-3.082-8.6-.052-2.993.646-5.605,2.093-7.839,1.445-2.232,3.475-3.97,6.088-5.214,2.612-1.242,5.67-1.864,9.171-1.864,3.449,0,6.48.635,9.095,1.902,2.612,1.27,4.654,3.032,6.126,5.29,1.471,2.258,2.232,4.884,2.283,7.876h-8.523c0-1.369-.355-2.675-1.065-3.919-.711-1.242-1.751-2.271-3.12-3.082-1.37-.812-3.045-1.218-5.023-1.218-2.537-.05-4.631.584-6.278,1.902-1.649,1.32-2.474,3.146-2.474,5.479,0,2.081.608,3.68,1.826,4.795,1.218,1.116,2.893,2.043,5.023,2.777,2.131.736,4.566,1.587,7.306,2.55,2.638.863,4.997,1.902,7.078,3.12,2.079,1.218,3.741,2.816,4.984,4.795s1.865,4.49,1.865,7.534c0,2.689-.686,5.188-2.056,7.496-1.369,2.31-3.425,4.186-6.164,5.632-2.74,1.446-6.114,2.169-10.122,2.169Z" fill="#497c70"/>
    <path d="M299.471,418.27c-3.704,0-6.989-.825-9.855-2.474-2.867-1.647-5.111-3.944-6.735-6.887s-2.435-6.367-2.435-10.274c0-3.957.799-7.432,2.396-10.427,1.599-2.992,3.831-5.327,6.697-7.001,2.866-1.675,6.203-2.512,10.008-2.512,3.703,0,6.926.825,9.666,2.474,2.739,1.649,4.87,3.843,6.393,6.583,1.521,2.739,2.283,5.759,2.283,9.057,0,.508-.014,1.053-.038,1.636-.026.584-.064,1.23-.114,1.94h-29.377c.254,3.653,1.458,6.432,3.615,8.334,2.156,1.902,4.654,2.854,7.496,2.854,2.283,0,4.198-.52,5.746-1.56,1.547-1.04,2.702-2.447,3.463-4.225h8.067c-1.016,3.553-3.032,6.521-6.051,8.904-3.019,2.386-6.761,3.577-11.226,3.577ZM299.471,385.317c-2.689,0-5.073.799-7.153,2.397-2.081,1.598-3.349,3.995-3.806,7.191h21.31c-.152-2.941-1.192-5.275-3.12-7.001-1.929-1.725-4.338-2.588-7.23-2.588Z" fill="#497c70"/>
    <path d="M326.26,417.357v-37.748h7.23l.685,7.154c1.319-2.485,3.158-4.452,5.518-5.898s5.213-2.169,8.562-2.169v8.447h-2.207c-2.232,0-4.224.369-5.974,1.104-1.751.736-3.146,1.979-4.186,3.729-1.041,1.75-1.561,4.174-1.561,7.268v18.113h-8.067Z" fill="#497c70"/>
    <path d="M365.758,417.357l-14.155-37.748h8.447l10.502,30.062,10.503-30.062h8.371l-14.079,37.748h-9.589Z" fill="#497c70"/>
    <path d="M400.613,372.456c-1.521,0-2.777-.469-3.767-1.408-.989-.938-1.484-2.118-1.484-3.539s.495-2.6,1.484-3.539c.989-.938,2.245-1.407,3.767-1.407s2.778.47,3.768,1.407c.989.939,1.483,2.119,1.483,3.539s-.494,2.601-1.483,3.539c-.989.939-2.245,1.408-3.768,1.408ZM396.579,417.357v-37.748h8.067v37.748h-8.067Z" fill="#497c70"/>
    <path d="M433.185,418.27c-3.704,0-7.015-.837-9.932-2.512-2.918-1.674-5.201-3.995-6.85-6.963-1.649-2.969-2.473-6.405-2.473-10.312s.823-7.344,2.473-10.312c1.648-2.968,3.932-5.289,6.85-6.963,2.917-1.675,6.228-2.512,9.932-2.512,4.668,0,8.587,1.218,11.758,3.653s5.214,5.733,6.127,9.894h-8.447c-.508-2.08-1.625-3.703-3.349-4.871-1.726-1.166-3.756-1.75-6.089-1.75-1.979,0-3.805.494-5.479,1.483-1.674.99-3.02,2.436-4.033,4.338-1.016,1.903-1.522,4.25-1.522,7.04s.507,5.137,1.522,7.04c1.014,1.902,2.359,3.361,4.033,4.376,1.675,1.016,3.501,1.521,5.479,1.521,2.333,0,4.363-.582,6.089-1.75,1.724-1.167,2.841-2.815,3.349-4.947h8.447c-.863,4.061-2.892,7.333-6.089,9.818-3.196,2.486-7.128,3.729-11.796,3.729Z" fill="#497c70"/>
    <path d="M477.477,418.27c-3.704,0-6.989-.825-9.855-2.474-2.867-1.647-5.111-3.944-6.735-6.887s-2.435-6.367-2.435-10.274c0-3.957.799-7.432,2.396-10.427,1.599-2.992,3.831-5.327,6.697-7.001,2.866-1.675,6.203-2.512,10.008-2.512,3.703,0,6.926.825,9.666,2.474,2.739,1.649,4.87,3.843,6.393,6.583,1.521,2.739,2.283,5.759,2.283,9.057,0,.508-.014,1.053-.038,1.636-.026.584-.064,1.23-.114,1.94h-29.377c.254,3.653,1.458,6.432,3.615,8.334,2.156,1.902,4.654,2.854,7.496,2.854,2.283,0,4.198-.52,5.746-1.56,1.547-1.04,2.702-2.447,3.463-4.225h8.067c-1.016,3.553-3.032,6.521-6.051,8.904-3.019,2.386-6.761,3.577-11.226,3.577ZM477.477,385.317c-2.689,0-5.073.799-7.153,2.397-2.081,1.598-3.349,3.995-3.806,7.191h21.31c-.152-2.941-1.192-5.275-3.12-7.001-1.929-1.725-4.338-2.588-7.23-2.588Z" fill="#497c70"/>
    <path d="M519.334,418.27c-4.77,0-8.702-1.166-11.797-3.501-3.095-2.333-4.87-5.428-5.327-9.284h8.144c.405,1.726,1.37,3.209,2.892,4.452,1.522,1.243,3.526,1.864,6.013,1.864,2.436,0,4.211-.507,5.327-1.522,1.115-1.014,1.674-2.181,1.674-3.5,0-1.928-.773-3.234-2.32-3.92-1.549-.685-3.691-1.306-6.432-1.864-2.131-.457-4.25-1.065-6.354-1.827-2.105-.761-3.856-1.838-5.251-3.234-1.396-1.395-2.093-3.284-2.093-5.669,0-3.298,1.268-6.051,3.805-8.258s6.089-3.311,10.655-3.311c4.21,0,7.622,1.016,10.235,3.044,2.613,2.03,4.148,4.897,4.604,8.6h-7.763c-.254-1.623-1.002-2.892-2.245-3.805s-2.904-1.37-4.984-1.37c-2.03,0-3.604.419-4.719,1.256-1.116.837-1.674,1.916-1.674,3.234s.772,2.359,2.321,3.12c1.547.762,3.588,1.446,6.126,2.055,2.536.56,4.883,1.206,7.04,1.941,2.155.735,3.893,1.814,5.213,3.234,1.318,1.421,1.979,3.501,1.979,6.24.05,3.451-1.282,6.316-3.995,8.6-2.715,2.283-6.406,3.425-11.073,3.425Z" fill="#497c70"/>
    <path d="M579.152,418.27c-3.805,0-7.115-.673-9.932-2.017-2.815-1.344-5.011-3.234-6.583-5.67-1.573-2.436-2.359-5.276-2.359-8.523,0-3.551,1.002-6.723,3.007-9.514,2.003-2.789,4.958-5.022,8.866-6.696-1.625-1.827-2.791-3.551-3.501-5.176-.711-1.623-1.065-3.398-1.065-5.327,0-3.501,1.268-6.404,3.805-8.714,2.537-2.308,6.062-3.463,10.579-3.463,2.941,0,5.479.559,7.61,1.675s3.754,2.613,4.87,4.49c1.115,1.877,1.648,4.008,1.599,6.393h-7.839c.05-2.029-.571-3.577-1.864-4.643-1.294-1.065-2.778-1.599-4.452-1.599-1.979,0-3.552.546-4.719,1.637-1.168,1.092-1.75,2.474-1.75,4.147,0,1.473.418,2.918,1.255,4.338.838,1.421,2.118,3.02,3.844,4.795l15.83,15.905c1.268-1.927,2.637-4.21,4.109-6.849l1.979-3.729h8.371l-3.044,5.556c-2.081,4.06-4.136,7.458-6.164,10.198l11.872,11.872h-9.894l-6.469-6.469c-2.639,2.588-5.403,4.465-8.296,5.632-2.892,1.166-6.114,1.75-9.665,1.75ZM568.117,401.603c0,2.843,1.027,5.201,3.082,7.078,2.056,1.878,4.757,2.815,8.105,2.815,2.485,0,4.743-.443,6.773-1.331,2.028-.888,4.007-2.347,5.937-4.377l-15.146-15.145c-2.942,1.218-5.137,2.753-6.583,4.604-1.445,1.853-2.169,3.971-2.169,6.354Z" fill="#497c70"/>
    <path d="M237.37,492.357v-53.273h9.513l18.037,35.465,17.961-35.465h9.513v53.273h-8.066v-39.346l-16.287,31.735h-6.24l-16.362-31.659v39.27h-8.067Z" fill="#497c70"/>
    <path d="M315.682,493.27c-3.196,0-5.835-.532-7.915-1.598-2.081-1.065-3.628-2.474-4.643-4.225-1.016-1.75-1.521-3.664-1.521-5.745,0-3.653,1.419-6.545,4.262-8.676,2.841-2.132,6.899-3.197,12.177-3.197h9.894v-.685c0-2.941-.8-5.148-2.397-6.621-1.599-1.471-3.666-2.207-6.203-2.207-2.232,0-4.174.546-5.821,1.637-1.649,1.091-2.652,2.701-3.007,4.832h-8.066c.253-2.739,1.18-5.086,2.777-7.039,1.599-1.953,3.627-3.45,6.089-4.49,2.46-1.04,5.162-1.561,8.104-1.561,5.276,0,9.361,1.383,12.253,4.147,2.893,2.767,4.338,6.533,4.338,11.302v23.212h-7.001l-.686-6.469c-1.065,2.081-2.613,3.831-4.642,5.251-2.03,1.42-4.694,2.131-7.991,2.131ZM317.28,486.725c2.182,0,4.021-.52,5.518-1.56,1.496-1.04,2.664-2.423,3.501-4.148.837-1.724,1.357-3.627,1.561-5.708h-8.98c-3.196,0-5.468.56-6.812,1.675-1.345,1.116-2.017,2.512-2.017,4.186,0,1.726.646,3.082,1.94,4.071,1.294.99,3.057,1.484,5.289,1.484Z" fill="#497c70"/>
    <path d="M345.437,492.357v-37.748h7.154l.608,6.621c1.167-2.333,2.879-4.173,5.138-5.518,2.257-1.344,4.857-2.017,7.801-2.017,4.565,0,8.154,1.421,10.769,4.262,2.612,2.842,3.919,7.078,3.919,12.71v21.689h-7.99v-20.853c0-7.306-2.995-10.959-8.98-10.959-2.994,0-5.468,1.065-7.421,3.196s-2.93,5.175-2.93,9.133v19.482h-8.067Z" fill="#497c70"/>
    <path d="M403.124,493.27c-3.196,0-5.835-.532-7.915-1.598-2.081-1.065-3.628-2.474-4.643-4.225-1.016-1.75-1.521-3.664-1.521-5.745,0-3.653,1.419-6.545,4.262-8.676,2.841-2.132,6.899-3.197,12.177-3.197h9.894v-.685c0-2.941-.8-5.148-2.397-6.621-1.599-1.471-3.666-2.207-6.203-2.207-2.232,0-4.174.546-5.821,1.637-1.649,1.091-2.652,2.701-3.007,4.832h-8.066c.253-2.739,1.18-5.086,2.777-7.039,1.599-1.953,3.627-3.45,6.089-4.49,2.46-1.04,5.162-1.561,8.104-1.561,5.276,0,9.361,1.383,12.253,4.147,2.893,2.767,4.338,6.533,4.338,11.302v23.212h-7.001l-.686-6.469c-1.065,2.081-2.613,3.831-4.642,5.251-2.03,1.42-4.694,2.131-7.991,2.131ZM404.722,486.725c2.182,0,4.021-.52,5.518-1.56,1.496-1.04,2.664-2.423,3.501-4.148.837-1.724,1.357-3.627,1.561-5.708h-8.98c-3.196,0-5.468.56-6.812,1.675-1.345,1.116-2.017,2.512-2.017,4.186,0,1.726.646,3.082,1.94,4.071,1.294.99,3.057,1.484,5.289,1.484Z" fill="#497c70"/>
    <path d="M448.329,480.789c-1.979,0-3.805-.228-5.479-.685l-3.272,3.196c.558.355,1.243.66,2.055.913.812.255,1.953.483,3.425.686,1.472.203,3.475.406,6.013.608,5.022.457,8.649,1.663,10.883,3.615,2.232,1.954,3.349,4.553,3.349,7.801,0,2.231-.597,4.35-1.788,6.354-1.193,2.004-3.045,3.627-5.556,4.871-2.512,1.242-5.722,1.864-9.628,1.864-5.277,0-9.551-1.003-12.823-3.006-3.272-2.005-4.909-5.036-4.909-9.095,0-1.573.419-3.134,1.256-4.681.838-1.547,2.169-3.006,3.996-4.376-1.065-.456-1.992-.951-2.778-1.483-.787-.533-1.483-1.078-2.093-1.637v-1.826l6.545-6.697c-2.943-2.537-4.414-5.86-4.414-9.97,0-2.485.596-4.757,1.789-6.812,1.191-2.055,2.93-3.691,5.213-4.909,2.283-1.217,5.022-1.826,8.219-1.826,2.131,0,4.11.305,5.937.913h14.079v5.327l-6.697.381c1.218,2.081,1.827,4.389,1.827,6.926s-.598,4.82-1.789,6.85c-1.192,2.029-2.918,3.652-5.175,4.87-2.258,1.218-4.985,1.826-8.182,1.826ZM438.208,497.152c0,2.181.963,3.816,2.892,4.908,1.928,1.091,4.338,1.637,7.229,1.637,2.79,0,5.048-.598,6.773-1.789,1.725-1.192,2.588-2.777,2.588-4.756,0-1.473-.584-2.729-1.751-3.768s-3.374-1.687-6.621-1.94c-2.435-.152-4.592-.381-6.469-.686-1.776.965-2.994,2.004-3.652,3.121-.66,1.115-.989,2.207-.989,3.272ZM448.329,474.473c2.333,0,4.225-.62,5.67-1.864,1.446-1.243,2.169-3.006,2.169-5.289,0-2.333-.723-4.11-2.169-5.327-1.445-1.218-3.337-1.827-5.67-1.827-2.385,0-4.3.609-5.745,1.827-1.446,1.217-2.169,2.994-2.169,5.327,0,2.283.723,4.046,2.169,5.289,1.445,1.244,3.36,1.864,5.745,1.864Z" fill="#497c70"/>
    <path d="M493.23,493.27c-3.704,0-6.989-.825-9.855-2.474-2.867-1.647-5.111-3.944-6.735-6.887s-2.435-6.367-2.435-10.274c0-3.957.799-7.432,2.396-10.427,1.599-2.992,3.831-5.327,6.697-7.001,2.866-1.675,6.203-2.512,10.008-2.512,3.703,0,6.926.825,9.666,2.474,2.739,1.649,4.87,3.843,6.393,6.583,1.521,2.739,2.283,5.759,2.283,9.057,0,.508-.014,1.053-.038,1.636-.026.584-.064,1.23-.114,1.94h-29.377c.254,3.653,1.458,6.432,3.615,8.334,2.156,1.902,4.654,2.854,7.496,2.854,2.283,0,4.198-.52,5.746-1.56,1.547-1.04,2.702-2.447,3.463-4.225h8.067c-1.016,3.553-3.032,6.521-6.051,8.904-3.019,2.386-6.761,3.577-11.226,3.577ZM493.23,460.317c-2.689,0-5.073.799-7.153,2.397-2.081,1.598-3.349,3.995-3.806,7.191h21.31c-.152-2.941-1.192-5.275-3.12-7.001-1.929-1.725-4.338-2.588-7.23-2.588Z" fill="#497c70"/>
    <path d="M520.019,492.357v-37.748h7.154l.685,5.327c1.218-1.927,2.828-3.449,4.833-4.565,2.004-1.116,4.325-1.675,6.964-1.675,5.985,0,10.146,2.359,12.48,7.078,1.37-2.182,3.209-3.906,5.518-5.176,2.309-1.268,4.807-1.902,7.496-1.902,4.719,0,8.422,1.421,11.111,4.262,2.689,2.842,4.034,7.078,4.034,12.71v21.689h-8.067v-20.853c0-7.306-2.791-10.959-8.371-10.959-2.843,0-5.164,1.065-6.964,3.196-1.802,2.131-2.702,5.175-2.702,9.133v19.482h-8.066v-20.853c0-7.306-2.816-10.959-8.448-10.959-2.791,0-5.087,1.065-6.887,3.196-1.802,2.131-2.702,5.175-2.702,9.133v19.482h-8.067Z" fill="#497c70"/>
    <path d="M607.386,493.27c-3.704,0-6.989-.825-9.855-2.474-2.867-1.647-5.111-3.944-6.735-6.887s-2.435-6.367-2.435-10.274c0-3.957.799-7.432,2.396-10.427,1.599-2.992,3.831-5.327,6.697-7.001,2.866-1.675,6.203-2.512,10.008-2.512,3.703,0,6.926.825,9.666,2.474,2.739,1.649,4.87,3.843,6.393,6.583,1.521,2.739,2.283,5.759,2.283,9.057,0,.508-.014,1.053-.038,1.636-.026.584-.064,1.23-.114,1.94h-29.377c.254,3.653,1.458,6.432,3.615,8.334,2.156,1.902,4.654,2.854,7.496,2.854,2.283,0,4.198-.52,5.746-1.56,1.547-1.04,2.702-2.447,3.463-4.225h8.067c-1.016,3.553-3.032,6.521-6.051,8.904-3.019,2.386-6.761,3.577-11.226,3.577ZM607.386,460.317c-2.689,0-5.073.799-7.153,2.397-2.081,1.598-3.349,3.995-3.806,7.191h21.31c-.152-2.941-1.192-5.275-3.12-7.001-1.929-1.725-4.338-2.588-7.23-2.588Z" fill="#497c70"/>
    <path d="M634.174,492.357v-37.748h7.154l.608,6.621c1.167-2.333,2.879-4.173,5.138-5.518,2.257-1.344,4.857-2.017,7.801-2.017,4.565,0,8.154,1.421,10.769,4.262,2.612,2.842,3.919,7.078,3.919,12.71v21.689h-7.99v-20.853c0-7.306-2.995-10.959-8.98-10.959-2.994,0-5.468,1.065-7.421,3.196s-2.93,5.175-2.93,9.133v19.482h-8.067Z" fill="#497c70"/>
    <path d="M694.906,492.357c-3.704,0-6.647-.9-8.828-2.702-2.182-1.8-3.272-5.01-3.272-9.627v-18.646h-6.469v-6.773h6.469l.989-9.589h7.078v9.589h10.654v6.773h-10.654v18.646c0,2.081.443,3.514,1.331,4.3.888.787,2.423,1.18,4.604,1.18h4.338v6.85h-6.24Z" fill="#497c70"/>
  </g>
  <rect x="107.916" y="55.373" width="55.373" height="55.373" fill="#497c70"/>
</svg>