<?xml version="1.0" encoding="UTF-8"?>
<svg id="a" data-name="Layer 1" xmlns="http://www.w3.org/2000/svg" width="215.999mm" height="206.166mm" viewBox="0 0 612.281 584.409">
  <g>
    <g>
      <path d="M263.259,370.193c1.43.063,3.279.125,5.549.187,2.27.063,4.524.093,6.764.093,2.984,0,5.829-.03,8.533-.093,2.705-.061,4.617-.093,5.737-.093,7.896,0,13.805,1.711,17.722,5.13,3.918,3.42,5.877,7.835,5.877,13.245,0,2.239-.39,4.587-1.166,7.042-.778,2.457-2.131,4.727-4.058,6.809-1.929,2.084-4.54,3.777-7.835,5.083-3.297,1.306-7.494,1.958-12.592,1.958h-9.142v-1.865h8.208c4.166,0,7.354-.839,9.561-2.519,2.207-1.679,3.699-3.885,4.478-6.623.776-2.735,1.166-5.689,1.166-8.861,0-5.907-1.058-10.322-3.171-13.245-2.115-2.922-5.783-4.384-11.007-4.384-2.675,0-4.431.529-5.271,1.585-.839,1.058-1.259,3.204-1.259,6.436v46.078c0,2.301.248,4.027.746,5.177.497,1.151,1.43,1.912,2.798,2.285,1.367.373,3.389.592,6.063.653v1.959c-1.679-.124-3.856-.201-6.529-.233-2.675-.03-5.442-.046-8.302-.046-2.487,0-4.866.016-7.135.046-2.271.032-4.184.109-5.736.233v-1.866c2.113-.124,3.698-.373,4.756-.746,1.057-.373,1.757-1.119,2.1-2.238.341-1.12.513-2.798.513-5.037v-46.264c0-2.3-.172-3.995-.513-5.083-.343-1.087-1.059-1.833-2.146-2.239-1.089-.403-2.658-.637-4.71-.699v-1.866Z" fill="#0e0400"/>
      <path d="M348.511,386.796c1.803,0,3.342.373,4.617,1.119,1.273.746,2.238,1.695,2.891,2.845.653,1.151.98,2.441.98,3.871,0,1.804-.546,3.343-1.633,4.617-1.089,1.275-2.535,1.912-4.338,1.912-1.555,0-2.877-.466-3.964-1.399-1.089-.933-1.632-2.207-1.632-3.824,0-1.367.357-2.533,1.072-3.498.715-.963,1.539-1.726,2.472-2.285-.622-.497-1.368-.714-2.238-.653-1.679.062-3.233.606-4.664,1.632-1.431,1.026-2.644,2.332-3.638,3.917-.995,1.585-1.771,3.281-2.332,5.083-.559,1.804-.839,3.483-.839,5.037v21.453c0,3.047.839,5.083,2.519,6.11,1.679,1.026,4.01,1.539,6.995,1.539v1.959c-1.431-.061-3.468-.14-6.109-.233-2.644-.093-5.426-.14-8.349-.14-2.238,0-4.477.046-6.715.14s-3.95.172-5.131.233v-1.959c2.426,0,4.15-.466,5.178-1.399,1.025-.933,1.539-2.705,1.539-5.316v-29.289c0-2.798-.467-4.865-1.4-6.203-.932-1.336-2.705-2.005-5.316-2.005v-1.959c1.99.187,3.918.28,5.783.28,2.113,0,4.088-.108,5.924-.326,1.832-.217,3.527-.544,5.083-.979v10.727c.746-1.803,1.739-3.544,2.984-5.223,1.243-1.679,2.735-3.062,4.478-4.151,1.74-1.087,3.668-1.632,5.783-1.632Z" fill="#0e0400"/>
      <path d="M377.425,387.076v40.481c0,2.611.514,4.384,1.539,5.316,1.026.933,2.752,1.399,5.177,1.399v1.959c-1.058-.061-2.69-.14-4.896-.233-2.208-.093-4.463-.14-6.763-.14-2.178,0-4.416.046-6.716.14-2.302.093-4.011.172-5.13.233v-1.959c2.425,0,4.15-.466,5.177-1.399s1.539-2.705,1.539-5.316v-29.289c0-2.798-.467-4.865-1.399-6.203-.933-1.336-2.705-2.005-5.316-2.005v-1.959c1.989.187,3.918.28,5.783.28,2.113,0,4.088-.108,5.923-.326,1.833-.217,3.528-.544,5.083-.979ZM371.83,364.597c1.926,0,3.544.606,4.85,1.819,1.307,1.212,1.959,2.721,1.959,4.523s-.652,3.312-1.959,4.524c-1.306,1.213-2.924,1.819-4.85,1.819s-3.545-.606-4.851-1.819c-1.306-1.212-1.959-2.719-1.959-4.524s.653-3.311,1.959-4.523c1.306-1.213,2.922-1.819,4.851-1.819Z" fill="#0e0400"/>
      <path d="M431.992,388.102v1.866c-1.183.187-2.285.793-3.312,1.819s-1.976,2.784-2.845,5.27l-14.738,39.548h-3.078l-16.976-41.321c-.995-2.425-1.975-3.901-2.938-4.43-.965-.528-1.787-.793-2.471-.793v-1.959c1.492.125,3.031.233,4.617.327,1.585.093,3.342.14,5.27.14s3.964-.046,6.109-.14,4.15-.201,6.016-.327v1.959c-1.492,0-2.813.093-3.963.28-1.152.187-1.898.731-2.239,1.632-.343.902-.14,2.441.606,4.617l11.473,28.915-.746.746,9.607-25.464c.933-2.486,1.306-4.492,1.119-6.016-.187-1.523-.84-2.673-1.959-3.451-1.119-.777-2.736-1.227-4.85-1.353v-1.866c1.057.063,2.035.109,2.938.14.9.032,1.772.062,2.611.093.84.032,1.727.046,2.658.046,1.367,0,2.658-.03,3.871-.093,1.213-.061,2.285-.124,3.219-.187Z" fill="#0e0400"/>
      <path d="M447.101,436.884c-2.611,0-4.85-.499-6.715-1.492-1.866-.994-3.266-2.363-4.198-4.104-.933-1.74-1.399-3.731-1.399-5.97,0-2.736.621-4.958,1.865-6.669,1.244-1.709,2.846-3.092,4.805-4.15,1.959-1.057,4.041-1.943,6.249-2.658,2.206-.714,4.29-1.399,6.249-2.052s3.576-1.414,4.851-2.285c1.274-.87,1.912-2.02,1.912-3.451v-6.343c0-2.239-.358-4.025-1.072-5.363-.716-1.336-1.679-2.285-2.892-2.845s-2.658-.84-4.338-.84c-1.431,0-2.953.203-4.57.606-1.617.405-2.891,1.198-3.824,2.378,1.367.373,2.502,1.105,3.404,2.192.901,1.089,1.354,2.441,1.354,4.058,0,1.742-.576,3.11-1.727,4.104-1.15.996-2.597,1.493-4.337,1.493-1.929,0-3.358-.606-4.29-1.819-.934-1.213-1.399-2.626-1.399-4.244,0-1.679.419-3.046,1.259-4.104.84-1.057,1.943-2.052,3.312-2.985,1.492-.994,3.404-1.833,5.736-2.519,2.332-.684,4.928-1.026,7.788-1.026,2.674,0,4.99.296,6.949.886,1.959.591,3.592,1.539,4.896,2.845,1.555,1.431,2.58,3.218,3.078,5.363s.746,4.743.746,7.789v25.744c0,1.555.201,2.658.607,3.312.403.653,1.072.979,2.005.979.62,0,1.228-.154,1.819-.466.59-.311,1.289-.777,2.098-1.399l.934,1.585c-1.307,1.058-2.628,1.897-3.965,2.519-1.338.621-3.031.933-5.083.933-1.991,0-3.607-.312-4.851-.933-1.244-.621-2.161-1.523-2.752-2.705-.592-1.181-.886-2.642-.886-4.384-1.618,2.612-3.544,4.603-5.782,5.97-2.239,1.368-4.852,2.052-7.836,2.052ZM451.579,432.407c1.74,0,3.372-.497,4.897-1.493,1.522-.994,2.938-2.486,4.243-4.477v-18.562c-.685.996-1.679,1.851-2.985,2.565-1.305.716-2.704,1.446-4.197,2.192-1.492.746-2.906,1.602-4.243,2.565-1.338.964-2.441,2.192-3.312,3.684-.871,1.492-1.306,3.39-1.306,5.69,0,2.425.62,4.337,1.865,5.736,1.243,1.399,2.923,2.099,5.037,2.099Z" fill="#0e0400"/>
      <path d="M497.375,372.711v15.483h12.873v1.866h-12.873v36.657c0,2.551.467,4.354,1.4,5.41.932,1.058,2.269,1.585,4.01,1.585,1.617,0,3.062-.653,4.338-1.958,1.273-1.306,2.379-3.513,3.311-6.623l1.773.653c-.747,3.297-2.068,6.079-3.965,8.348-1.897,2.269-4.68,3.404-8.348,3.404-2.115,0-3.887-.265-5.316-.792-1.432-.528-2.676-1.29-3.731-2.286-1.368-1.43-2.302-3.139-2.798-5.13-.499-1.989-.747-4.632-.747-7.928v-31.34h-8.581v-1.866h8.581v-13.618c1.927-.061,3.731-.233,5.41-.513s3.232-.73,4.663-1.353Z" fill="#0e0400"/>
      <path d="M537.017,386.796c5.472,0,9.762,1.648,12.873,4.943,3.108,3.297,4.663,8.52,4.663,15.67h-32.18l-.187-1.772h22.479c.062-3.046-.186-5.86-.746-8.441-.559-2.58-1.431-4.647-2.611-6.203-1.182-1.554-2.736-2.332-4.664-2.332-2.674,0-4.99,1.416-6.948,4.244-1.959,2.831-3.157,7.354-3.591,13.572l.279.466c-.062.872-.125,1.819-.187,2.845-.062,1.026-.093,2.038-.093,3.031,0,4.291.652,7.898,1.959,10.82,1.305,2.924,3.015,5.116,5.129,6.576,2.113,1.462,4.26,2.192,6.437,2.192,1.679,0,3.312-.264,4.897-.793,1.585-.527,3.092-1.43,4.523-2.705,1.43-1.273,2.705-3.031,3.824-5.27l1.865.747c-.746,2.115-1.897,4.197-3.451,6.249-1.555,2.052-3.545,3.717-5.969,4.99-2.426,1.274-5.256,1.912-8.488,1.912-4.354,0-8.147-.979-11.38-2.938-3.233-1.959-5.722-4.771-7.462-8.441-1.742-3.668-2.611-8.021-2.611-13.059,0-5.534.9-10.26,2.705-14.178,1.803-3.917,4.337-6.917,7.602-9.001,3.265-2.083,7.042-3.125,11.332-3.125Z" fill="#0e0400"/>
    </g>
    <rect x="135.602" y="55.993" width="55.373" height="55.373" fill="#0e0400"/>
    <path d="M460.43,231.615c-5.933-10.105-15.837-18.858-29.71-26.273-13.882-7.409-32.677-12.188-56.387-14.349v-.808c17.513-3.771,31.729-9.431,42.645-16.976,10.912-7.539,18.858-16.029,23.847-25.465,4.983-9.428,7.478-18.855,7.478-28.292,0-18.594-7.882-33.812-23.647-45.672-15.764-11.854-39.548-17.787-71.341-17.787h-88.921v59.35c17.382,0,45.622,7.21,55.376,32.044v-48.953c0-14.009,1.679-23.307,5.052-27.891,3.364-4.579,10.572-6.868,21.624-6.868,16.165,0,27.749,5.052,34.759,15.157,7.002,10.105,10.509,25.128,10.509,45.065,0,11.59-1.351,22.432-4.041,32.537-2.696,10.105-7.821,18.19-15.361,24.254-7.545,6.06-18.19,9.094-31.933,9.094h-20.819c-.253-11.106-1.267-20.143-3.058-27.081-2.086-8.083-5.629-14.683-10.632-19.806-4.451-4.579-10.218-8.35-17.304-11.316-7.092-2.963-16.475-4.445-28.149-4.445-14.46,0-28.441,3.097-40.671,9.294-12.236,6.203-21.828,16.976-28.773,32.333v-45.605h-55.373v197.177c0,22.365-2.019,40.018-6.063,52.953-4.041,12.932-10.041,22.089-17.987,27.484-7.949,5.386-17.446,8.35-28.493,8.89v8.083c28.292,0,50.925-6.264,67.903-18.795,16.973-12.528,28.019-28.228,33.144-47.087,2.423-9.164,4.105-19.806,5.052-31.93.941-12.127,1.476-24.658,1.615-37.589.024-2.355.044-4.643.064-6.936l.137-.076v-76.256c0-10.506,2.015-20.006,6.046-28.493,4.025-8.489,9.592-15.157,16.681-20.009,7.089-4.849,15.857-7.275,25.033-7.275,1.027,0,1.938.108,2.902.167,22.555,2.383,22.758,32.483,22.758,38.799v159.492h98.218c22.365,0,41.494-3.094,57.398-9.297,15.892-6.194,28.089-15.157,36.575-26.877,8.489-11.72,12.734-25.799,12.734-42.241,0-11.043-2.969-21.621-8.89-31.726ZM396.364,314.072c-9.841,12.261-25.805,18.388-47.897,18.388-7.818,0-13.742-.808-17.784-2.423-4.044-1.618-6.874-4.852-8.489-9.704-1.615-4.849-2.423-11.984-2.423-21.418v-102.262h22.632c24.518,0,42.101,5.66,52.746,16.976,10.642,11.316,15.965,27.354,15.965,48.098,0,22.636-4.919,40.085-14.75,52.346Z" fill="#0e0400"/>
  </g>
  <g>
    <rect x="78.117" y="497.45" width="484.577" height="35.006" fill="none"/>
    <path d="M85.451,525.989v-27.747h8.523c4.889,0,8.488,1.243,10.801,3.726,2.312,2.484,3.469,5.893,3.469,10.227,0,4.255-1.156,7.618-3.469,10.088-2.312,2.471-5.912,3.706-10.801,3.706h-8.523ZM88.781,523.214h5.113c2.695,0,4.842-.442,6.441-1.328,1.599-.885,2.741-2.153,3.429-3.805.687-1.651,1.03-3.613,1.03-5.887,0-2.325-.344-4.32-1.03-5.985-.688-1.665-1.83-2.946-3.429-3.845-1.6-.898-3.746-1.348-6.441-1.348h-5.113v22.197Z" fill="#0e0400"/>
    <path d="M114.863,501.968c-.66,0-1.209-.218-1.645-.654s-.654-.984-.654-1.645c0-.634.219-1.163.654-1.586.436-.422.984-.634,1.645-.634.635,0,1.176.212,1.625.634.449.423.674.952.674,1.586,0,.661-.225,1.209-.674,1.645s-.99.654-1.625.654ZM113.199,525.989v-19.661h3.329v19.661h-3.329Z" fill="#0e0400"/>
    <path d="M129.847,526.465c-2.354,0-4.309-.595-5.867-1.784-1.56-1.189-2.471-2.801-2.734-4.836h3.408c.211,1.031.76,1.922,1.645,2.676.886.753,2.082,1.129,3.588,1.129,1.4,0,2.431-.297,3.092-.892.66-.595.99-1.301.99-2.121,0-1.189-.43-1.982-1.287-2.378-.859-.396-2.068-.753-3.627-1.07-1.058-.211-2.115-.515-3.172-.912s-1.941-.958-2.655-1.685c-.714-.727-1.07-1.685-1.07-2.874,0-1.717.64-3.125,1.923-4.221,1.281-1.097,3.018-1.645,5.212-1.645,2.087,0,3.798.522,5.134,1.565,1.334,1.044,2.106,2.531,2.318,4.459h-3.29c-.132-1.004-.562-1.79-1.288-2.358-.728-.568-1.698-.853-2.914-.853-1.189,0-2.107.251-2.754.753-.648.502-.972,1.163-.972,1.982,0,.792.416,1.414,1.249,1.863.832.45,1.962.833,3.389,1.149,1.215.265,2.371.588,3.469.971,1.096.384,1.994.952,2.695,1.705.699.753,1.051,1.843,1.051,3.27.025,1.771-.642,3.231-2.002,4.38-1.361,1.149-3.205,1.724-5.529,1.724Z" fill="#0e0400"/>
    <path d="M151.172,526.465c-1.876,0-3.561-.43-5.053-1.288-1.494-.858-2.67-2.062-3.528-3.607s-1.288-3.349-1.288-5.411.43-3.865,1.288-5.411,2.034-2.748,3.528-3.607c1.492-.858,3.177-1.288,5.053-1.288,2.326,0,4.288.608,5.887,1.823,1.599,1.216,2.609,2.841,3.033,4.875h-3.41c-.264-1.215-.911-2.16-1.941-2.834-1.031-.674-2.233-1.011-3.607-1.011-1.109,0-2.154.277-3.131.832-.979.555-1.771,1.388-2.379,2.498s-.912,2.484-.912,4.122.305,3.013.912,4.123,1.4,1.949,2.379,2.517c.977.568,2.021.852,3.131.852,1.374,0,2.576-.337,3.607-1.011,1.03-.674,1.678-1.631,1.941-2.874h3.41c-.396,1.982-1.401,3.594-3.014,4.836-1.611,1.242-3.58,1.863-5.906,1.863Z" fill="#0e0400"/>
    <path d="M164.728,525.989v-19.661h3.013l.277,3.766c.608-1.294,1.532-2.325,2.774-3.092,1.242-.766,2.775-1.149,4.599-1.149v3.488h-.911c-1.164,0-2.234.205-3.211.615-.979.41-1.758,1.104-2.34,2.081-.581.978-.871,2.326-.871,4.043v9.91h-3.33Z" fill="#0e0400"/>
    <path d="M187.204,526.465c-1.877,0-3.542-.43-4.995-1.288s-2.596-2.055-3.428-3.587c-.833-1.532-1.249-3.343-1.249-5.431,0-2.061.409-3.865,1.229-5.411s1.962-2.748,3.429-3.607c1.467-.858,3.164-1.288,5.094-1.288,1.902,0,3.547.43,4.936,1.288,1.387.859,2.45,1.989,3.19,3.389.739,1.401,1.11,2.907,1.11,4.519,0,.292-.008.582-.021.872-.014.291-.02.622-.02.991h-15.657c.079,1.506.43,2.755,1.051,3.746.62.991,1.4,1.738,2.338,2.24.938.502,1.936.753,2.993.753,1.374,0,2.522-.317,3.448-.951.925-.634,1.599-1.493,2.021-2.577h3.29c-.528,1.824-1.54,3.336-3.032,4.539-1.493,1.203-3.402,1.804-5.728,1.804ZM187.204,508.667c-1.586,0-2.993.483-4.222,1.447-1.229.965-1.936,2.373-2.121,4.222h12.367c-.078-1.77-.688-3.157-1.822-4.162-1.137-1.004-2.537-1.506-4.202-1.506Z" fill="#0e0400"/>
    <path d="M208.013,525.989c-1.797,0-3.211-.436-4.242-1.308-1.029-.872-1.545-2.444-1.545-4.717v-10.821h-3.409v-2.814h3.409l.436-4.717h2.895v4.717h5.787v2.814h-5.787v10.821c0,1.242.25,2.081.752,2.517s1.388.654,2.656.654h2.061v2.854h-3.012Z" fill="#0e0400"/>
    <path d="M217.605,501.968c-.66,0-1.209-.218-1.645-.654s-.654-.984-.654-1.645c0-.634.219-1.163.654-1.586.436-.422.984-.634,1.645-.634.635,0,1.176.212,1.625.634.449.423.674.952.674,1.586,0,.661-.225,1.209-.674,1.645s-.99.654-1.625.654ZM215.941,525.989v-19.661h3.329v19.661h-3.329Z" fill="#0e0400"/>
    <path d="M234.015,526.465c-1.85,0-3.514-.423-4.994-1.269-1.48-.845-2.649-2.041-3.508-3.587-.859-1.546-1.288-3.363-1.288-5.451s.437-3.904,1.308-5.45c.873-1.546,2.055-2.741,3.548-3.587,1.493-.845,3.165-1.268,5.015-1.268s3.514.423,4.994,1.268c1.479.846,2.648,2.042,3.508,3.587s1.289,3.363,1.289,5.45-.437,3.905-1.309,5.451-2.055,2.742-3.548,3.587c-1.493.846-3.165,1.269-5.015,1.269ZM234.015,523.611c1.137,0,2.193-.277,3.172-.833.977-.555,1.77-1.387,2.378-2.497s.911-2.483.911-4.123-.297-3.012-.891-4.122c-.596-1.11-1.382-1.942-2.359-2.498-.978-.555-2.021-.832-3.131-.832-1.137,0-2.193.277-3.172.832-.978.555-1.77,1.388-2.378,2.498s-.911,2.484-.911,4.122.303,3.013.911,4.123,1.394,1.942,2.358,2.497c.965.555,2.002.833,3.111.833Z" fill="#0e0400"/>
    <path d="M248.523,525.989v-19.661h3.013l.198,3.528c.635-1.242,1.546-2.22,2.734-2.934,1.189-.713,2.537-1.07,4.044-1.07,2.325,0,4.182.707,5.569,2.121,1.387,1.414,2.08,3.587,2.08,6.521v11.495h-3.329v-11.139c0-4.096-1.691-6.144-5.073-6.144-1.691,0-3.1.614-4.222,1.843-1.124,1.229-1.685,2.98-1.685,5.252v10.187h-3.33Z" fill="#0e0400"/>
    <path d="M272.345,526.187c-.66,0-1.209-.218-1.645-.654s-.654-.971-.654-1.605.219-1.169.654-1.605.984-.654,1.645-.654c.635,0,1.17.218,1.605.654s.654.971.654,1.605-.219,1.169-.654,1.605-.971.654-1.605.654Z" fill="#0e0400"/>
    <path d="M297.992,525.989l-10.426-27.747h3.607l8.76,24.219,8.84-24.219h3.527l-10.424,27.747h-3.885Z" fill="#0e0400"/>
    <path d="M317.929,501.968c-.66,0-1.209-.218-1.645-.654s-.654-.984-.654-1.645c0-.634.219-1.163.654-1.586.436-.422.984-.634,1.645-.634.635,0,1.176.212,1.625.634.449.423.674.952.674,1.586,0,.661-.225,1.209-.674,1.645s-.99.654-1.625.654ZM316.265,525.989v-19.661h3.329v19.661h-3.329Z" fill="#0e0400"/>
    <path d="M332.914,526.465c-2.354,0-4.309-.595-5.867-1.784-1.56-1.189-2.471-2.801-2.734-4.836h3.408c.211,1.031.76,1.922,1.645,2.676.886.753,2.082,1.129,3.588,1.129,1.4,0,2.431-.297,3.092-.892.66-.595.99-1.301.99-2.121,0-1.189-.43-1.982-1.287-2.378-.859-.396-2.068-.753-3.627-1.07-1.058-.211-2.115-.515-3.172-.912s-1.941-.958-2.655-1.685c-.714-.727-1.07-1.685-1.07-2.874,0-1.717.64-3.125,1.923-4.221,1.281-1.097,3.018-1.645,5.212-1.645,2.087,0,3.798.522,5.134,1.565,1.334,1.044,2.106,2.531,2.318,4.459h-3.29c-.132-1.004-.562-1.79-1.288-2.358-.728-.568-1.698-.853-2.914-.853-1.189,0-2.107.251-2.754.753-.648.502-.972,1.163-.972,1.982,0,.792.416,1.414,1.249,1.863.832.45,1.962.833,3.389,1.149,1.215.265,2.371.588,3.469.971,1.096.384,1.994.952,2.695,1.705.699.753,1.051,1.843,1.051,3.27.025,1.771-.642,3.231-2.002,4.38-1.361,1.149-3.205,1.724-5.529,1.724Z" fill="#0e0400"/>
    <path d="M347.222,501.968c-.66,0-1.209-.218-1.645-.654s-.654-.984-.654-1.645c0-.634.219-1.163.654-1.586.436-.422.984-.634,1.645-.634.635,0,1.176.212,1.625.634.449.423.674.952.674,1.586,0,.661-.225,1.209-.674,1.645s-.99.654-1.625.654ZM345.558,525.989v-19.661h3.329v19.661h-3.329Z" fill="#0e0400"/>
    <path d="M363.632,526.465c-1.85,0-3.514-.423-4.994-1.269-1.48-.845-2.649-2.041-3.508-3.587-.859-1.546-1.288-3.363-1.288-5.451s.437-3.904,1.308-5.45c.873-1.546,2.055-2.741,3.548-3.587,1.493-.845,3.165-1.268,5.015-1.268s3.514.423,4.994,1.268c1.479.846,2.648,2.042,3.508,3.587s1.289,3.363,1.289,5.45-.437,3.905-1.309,5.451-2.055,2.742-3.548,3.587c-1.493.846-3.165,1.269-5.015,1.269ZM363.632,523.611c1.137,0,2.193-.277,3.172-.833.977-.555,1.77-1.387,2.378-2.497s.911-2.483.911-4.123-.297-3.012-.891-4.122c-.596-1.11-1.382-1.942-2.359-2.498-.978-.555-2.021-.832-3.131-.832-1.137,0-2.193.277-3.172.832-.978.555-1.77,1.388-2.378,2.498s-.911,2.484-.911,4.122.303,3.013.911,4.123,1.394,1.942,2.358,2.497c.965.555,2.002.833,3.111.833Z" fill="#0e0400"/>
    <path d="M378.14,525.989v-19.661h3.013l.198,3.528c.635-1.242,1.546-2.22,2.734-2.934,1.189-.713,2.537-1.07,4.044-1.07,2.325,0,4.182.707,5.569,2.121,1.387,1.414,2.08,3.587,2.08,6.521v11.495h-3.329v-11.139c0-4.096-1.691-6.144-5.073-6.144-1.691,0-3.1.614-4.222,1.843-1.124,1.229-1.685,2.98-1.685,5.252v10.187h-3.33Z" fill="#0e0400"/>
    <path d="M401.963,526.187c-.66,0-1.209-.218-1.645-.654s-.654-.971-.654-1.605.219-1.169.654-1.605.984-.654,1.645-.654c.635,0,1.17.218,1.605.654s.654.971.654,1.605-.219,1.169-.654,1.605-.971.654-1.605.654Z" fill="#0e0400"/>
    <path d="M431.175,526.465c-2.59,0-4.861-.601-6.816-1.804-1.957-1.202-3.477-2.88-4.559-5.034-1.084-2.154-1.626-4.644-1.626-7.472s.548-5.325,1.646-7.492c1.096-2.167,2.655-3.858,4.678-5.074,2.021-1.215,4.405-1.823,7.154-1.823,3.117,0,5.714.753,7.789,2.259,2.074,1.506,3.415,3.581,4.023,6.223h-3.846c-.37-1.665-1.248-2.986-2.636-3.964-1.388-.977-3.165-1.466-5.331-1.466-2.035,0-3.806.456-5.312,1.367-1.507.912-2.676,2.214-3.509,3.905-.832,1.691-1.248,3.713-1.248,6.064s.409,4.374,1.229,6.065c.818,1.691,1.955,2.993,3.409,3.904,1.453.912,3.145,1.368,5.073,1.368,2.96,0,5.193-.865,6.699-2.597,1.506-1.73,2.365-4.103,2.576-7.115h-8.006v-2.616h11.416v14.825h-3.053l-.277-4.559c-1.005,1.612-2.234,2.854-3.687,3.726-1.454.872-3.383,1.308-5.788,1.308Z" fill="#0e0400"/>
    <path d="M449.052,525.989v-19.661h3.013l.277,3.766c.608-1.294,1.532-2.325,2.774-3.092,1.242-.766,2.775-1.149,4.599-1.149v3.488h-.911c-1.164,0-2.234.205-3.211.615-.979.41-1.758,1.104-2.34,2.081-.581.978-.871,2.326-.871,4.043v9.91h-3.33Z" fill="#0e0400"/>
    <path d="M471.646,526.465c-1.85,0-3.514-.423-4.994-1.269-1.48-.845-2.649-2.041-3.508-3.587-.859-1.546-1.288-3.363-1.288-5.451s.437-3.904,1.308-5.45c.873-1.546,2.055-2.741,3.548-3.587,1.493-.845,3.165-1.268,5.015-1.268s3.514.423,4.994,1.268c1.479.846,2.648,2.042,3.508,3.587s1.289,3.363,1.289,5.45-.437,3.905-1.309,5.451-2.055,2.742-3.548,3.587c-1.493.846-3.165,1.269-5.015,1.269ZM471.646,523.611c1.137,0,2.193-.277,3.172-.833.977-.555,1.77-1.387,2.378-2.497s.911-2.483.911-4.123-.297-3.012-.891-4.122c-.596-1.11-1.382-1.942-2.359-2.498-.978-.555-2.021-.832-3.131-.832-1.137,0-2.193.277-3.172.832-.978.555-1.77,1.388-2.378,2.498s-.911,2.484-.911,4.122.303,3.013.911,4.123,1.394,1.942,2.358,2.497c.965.555,2.002.833,3.111.833Z" fill="#0e0400"/>
    <path d="M489.365,525.989l-5.748-19.661h3.33l4.162,15.419,4.598-15.419h3.766l4.639,15.419,4.122-15.419h3.369l-5.747,19.661h-3.409l-4.836-16.212-4.836,16.212h-3.409Z" fill="#0e0400"/>
    <path d="M523.058,525.989c-1.798,0-3.211-.436-4.242-1.308-1.03-.872-1.546-2.444-1.546-4.717v-10.821h-3.409v-2.814h3.409l.437-4.717h2.894v4.717h5.787v2.814h-5.787v10.821c0,1.242.251,2.081.753,2.517s1.387.654,2.656.654h2.061v2.854h-3.012Z" fill="#0e0400"/>
    <path d="M530.629,525.989v-28.54h3.33v12.249c.66-1.215,1.598-2.16,2.813-2.834s2.537-1.011,3.964-1.011c2.272,0,4.096.707,5.471,2.121,1.373,1.414,2.061,3.587,2.061,6.521v11.495h-3.289v-11.139c0-4.096-1.652-6.144-4.955-6.144-1.719,0-3.158.614-4.321,1.843-1.163,1.229-1.743,2.98-1.743,5.252v10.187h-3.33Z" fill="#0e0400"/>
    <path d="M554.451,526.187c-.661,0-1.209-.218-1.645-.654-.437-.436-.654-.971-.654-1.605s.218-1.169.654-1.605c.436-.436.983-.654,1.645-.654.635,0,1.169.218,1.605.654.436.436.654.971.654,1.605s-.219,1.169-.654,1.605c-.437.436-.971.654-1.605.654Z" fill="#0e0400"/>
  </g>
  <rect x="83.059" y="471.616" width="472.608" height="1.321" fill="#0e0400"/>
</svg>